<svg width="405" height="252" viewBox="0 0 405 252" fill="none" xmlns="http://www.w3.org/2000/svg">
<path d="M100.523 9.76633L4.11237 232.669C1.00398 239.855 6.27274 247.875 14.1028 247.875H300.846C305.292 247.875 309.291 245.171 310.947 241.045L400.429 18.1425C403.3 10.9908 398.034 3.20258 390.328 3.20258H110.514C106.173 3.20258 102.247 5.782 100.523 9.76633Z" fill="#070000" stroke="white" stroke-width="6.40519"/>
<path d="M316.53 23.0793L287.436 23.0793C291.647 36.471 295.826 51.691 300.446 64.9534L293.35 72.7605C286.963 79.6997 280.182 86.2454 273.007 92.3964C271.115 93.8158 268.277 93.5792 260.707 93.5792L251.719 113.925H278.684C283.888 113.925 288.619 112.742 291.93 109.43C297.534 103.431 303.211 97.0437 308.961 91.2135C311.493 98.835 314.016 106.406 316.53 113.925L345.861 113.925C342.406 102.77 338.306 90.7833 334.507 79.8578C333.356 75.8577 332.174 71.9144 330.959 68.0289L351.538 47.4467C355.795 42.9517 359.411 43.6922 364.074 43.898L373.299 23.0793H342.549C338.765 23.0793 336.399 25.2085 334.034 27.3377C329.985 31.465 326.437 36.7482 322.916 41.2957C320.869 35.6278 318.583 28.7671 316.53 23.0793Z" fill="#F8F8F8"/>
<path d="M177.575 23.049C180.572 23.049 184.234 24.0115 186.197 27.0656C188.164 30.1248 188.357 35.1715 184.678 43.1661L175.453 63.379L175.452 63.381C174.593 65.2322 173.005 66.6344 171.12 67.7775C169.357 68.8465 167.311 69.6996 165.312 70.4865C167.039 72.0145 168.034 73.8394 168.519 75.5314C169.032 77.3231 168.981 78.9898 168.601 80.0089L168.598 80.0177L168.594 80.0255L156.53 106.661L156.529 106.663C154.829 110.327 151.573 112.146 148.438 113.05C145.304 113.953 142.254 113.952 140.912 113.952H76.873L77.04 113.577L117.252 23.2072L117.322 23.049H177.575ZM124.037 76.5861C116.549 93.2572 124.037 76.5868 116.549 93.2579C130.991 93.2579 116.549 93.2579 131.525 93.2579C132.64 93.2579 134.046 92.4349 134.468 91.3751C135.537 88.6864 136.841 85.8126 137.944 83.0402C139.014 80.3514 137.677 76.8553 134.735 76.5861C124.038 76.586 134.735 76.5861 124.037 76.5861ZM133.579 56.1339C146.352 56.1339 133.579 56.1339 146.825 56.1339C147.811 56.1339 149.054 55.4069 149.427 54.4698C150.373 52.0917 151.526 49.549 152.502 47.0968C153.448 44.7189 152.265 41.6279 149.664 41.3898C140.203 41.3897 149.664 41.3898 140.202 41.3898C133.579 56.1341 140.202 41.3898 133.579 56.1339Z" fill="#F8F8F8"/>
<path d="M265.034 23.0838C272.791 23.0662 277.96 31.02 274.777 38.076L243.463 107.486C241.734 111.319 237.91 113.791 233.697 113.801L181.034 113.921C173.29 113.938 168.12 106.009 171.278 98.9559L202.352 29.5467C204.075 25.6989 207.907 23.2126 212.131 23.2029L265.034 23.0838ZM238.6 47.3133C240.501 43.2489 237.159 40.3729 232.284 41.8777C229.592 42.7088 227.181 44.7003 226.151 46.9451L207.342 87.9344C205.539 91.8646 208.784 94.6255 213.498 93.1707C216.094 92.3694 218.422 90.456 219.434 88.2918L238.6 47.3133Z" fill="#F8F8F8"/>
<path d="M181.151 123.866C188.9 123.848 194.086 131.835 190.919 138.907L168.735 188.438C167.019 192.269 163.217 194.739 159.019 194.748L123.379 194.829C115.643 194.847 110.456 186.886 113.598 179.816L135.613 130.285C137.322 126.439 141.133 123.957 145.341 123.948L181.151 123.866ZM164.358 142.767C165.826 139.605 163.218 137.37 159.434 138.546C157.352 139.194 155.492 140.739 154.699 142.479L140.087 174.555C138.694 177.612 141.226 179.758 144.883 178.62C146.891 177.996 148.687 176.513 149.466 174.835L164.358 142.767Z" fill="#C2060C"/>
<path d="M254.094 123.866C261.843 123.848 267.03 131.835 263.862 138.908L241.677 188.438C239.961 192.269 236.159 194.739 231.962 194.748L196.321 194.829C188.585 194.847 183.4 186.885 186.542 179.816L208.556 130.285C210.266 126.439 214.075 123.957 218.284 123.948L254.094 123.866ZM237.301 142.767C238.769 139.605 236.161 137.37 232.377 138.546C230.294 139.194 228.435 140.739 227.642 142.479L213.029 174.555C211.636 177.612 214.168 179.758 217.826 178.62C219.834 177.996 221.631 176.513 222.41 174.835L237.301 142.767Z" fill="#C2060C"/>
<path d="M329.647 123.864C329.647 123.864 331.932 123.627 334.833 126.992C336.791 129.264 336.789 133.303 333.452 139.546V139.547L326.574 154.323C325.865 155.582 323.736 157.944 319.005 158.988C322.219 159.836 321.263 165.251 320.277 166.919L310.144 189.629C308.605 192.482 305.415 193.656 302.574 194.361C299.734 195.066 296.869 194.834 295.651 194.834H263.126C260.944 194.597 259.192 193.382 257.94 191.707C256.163 189.327 255.985 185.395 259.322 179.152H259.321L265.801 163.36L265.802 163.358C266.578 161.918 268.015 159.88 269.723 158.988C271.332 158.148 272.535 157.928 274.083 157.805C272.5 156.609 272.065 155.65 271.623 154.323C271.158 152.927 271.205 151.63 271.547 150.84L271.553 150.828L281.081 129.547L281.082 129.545C282.621 126.692 285.567 125.273 288.408 124.568C291.246 123.864 294.008 123.864 295.227 123.864H329.647ZM293.178 165.498C290.819 165.498 288.13 167.245 287.171 169.399L284.441 175.531C283.482 177.686 284.617 179.433 286.976 179.433H290.001C292.359 179.433 295.049 177.686 296.008 175.531L298.737 169.399C299.696 167.245 298.561 165.498 296.203 165.498H293.178ZM305.951 138.528C303.593 138.528 300.903 140.275 299.944 142.43L297.215 148.561C296.256 150.716 297.391 152.463 299.749 152.463H302.774C305.133 152.463 307.822 150.716 308.781 148.561L311.511 142.43C312.47 140.275 311.335 138.528 308.977 138.528H305.951Z" fill="#C2060C"/>
<path d="M116.466 123.357C118.815 123.358 121.7 124.112 123.25 126.522C124.802 128.936 124.943 132.902 122.067 139.151L114.862 154.94L114.855 154.955L114.845 154.97C114.02 156.3 113.296 157.125 112.174 157.663C111.185 158.137 109.904 158.377 108.013 158.592C110.034 160.217 110.595 162.111 110.555 163.807C110.513 165.621 109.78 167.203 109.511 167.924L109.508 167.933L109.504 167.94L100.083 188.744L100.082 188.746C98.7436 191.629 96.1817 193.057 93.7241 193.766C91.2683 194.473 88.88 194.473 87.8315 194.473H41.5015L41.6675 194.098L48.5269 178.639L48.5972 178.48H77.9448C77.9679 178.473 78.0033 178.463 78.0483 178.448C78.1389 178.42 78.2721 178.375 78.437 178.314C78.7676 178.19 79.2275 177.998 79.7407 177.727C80.7711 177.181 82.001 176.319 82.8472 175.05C84.6997 172.27 84.7722 170.039 84.4058 168.518C84.2214 167.752 83.9237 167.158 83.6733 166.756C83.5482 166.555 83.4346 166.403 83.354 166.302C83.3346 166.278 83.3166 166.257 83.3013 166.238H68.6011L68.7456 165.873L74.6597 150.969L74.7261 150.8H88.9966C89.0072 150.8 89.0238 150.8 89.0454 150.799C89.0896 150.797 89.1566 150.794 89.2417 150.787C89.4124 150.774 89.6594 150.747 89.9575 150.693C90.5556 150.586 91.3573 150.371 92.1753 149.943C93.7986 149.095 95.5131 147.396 95.813 143.946C96.0252 141.505 95.6951 140.342 95.3608 139.798C95.1965 139.531 95.0302 139.412 94.9214 139.357C94.8659 139.33 94.8217 139.317 94.7954 139.312C94.7827 139.309 94.7738 139.308 94.77 139.308H66.1001L66.2671 138.932L73.1274 123.516L73.1978 123.357H116.466Z" fill="#C2060C"/>
<path d="M36.3266 231.016C31.0352 231.016 28.997 226.802 32.1682 219.679C35.3527 212.527 41.1841 208.312 46.435 208.312C50.849 208.312 53.0223 211.132 51.503 215.969H47.8719C48.5892 213.358 47.3127 211.859 44.91 211.859C41.6163 211.859 38.0189 214.664 35.7858 219.679C33.5263 224.754 34.6795 227.47 37.9461 227.47C40.3489 227.47 42.9599 225.971 44.5817 223.359H48.2263C45.7899 227.588 41.0781 231.016 36.3266 231.016Z" fill="white"/>
<path d="M50.758 230.719L60.6021 208.609H68.1208C72.7508 208.609 73.9324 211.473 72.0561 215.688C70.7215 218.685 68.4952 220.896 65.657 221.935L66.1058 230.719H62.0698L61.7286 222.603H57.976L54.3621 230.719H50.758ZM59.4361 219.323H62.8242C65.5374 219.323 67.3271 218.032 68.371 215.688C69.4215 213.328 68.8276 211.933 66.0874 211.933H62.7263L59.4361 219.323Z" fill="white"/>
<path d="M79.76 231.016C74.4821 231.016 72.3898 226.802 75.5611 219.679C78.7456 212.527 84.5904 208.312 89.8684 208.312C95.1328 208.312 97.2115 212.527 94.0271 219.679C90.8492 226.817 85.0244 231.016 79.76 231.016ZM81.339 227.47C84.6057 227.47 88.1497 224.724 90.396 219.679C92.6555 214.604 91.556 211.859 88.2893 211.859C84.9957 211.859 81.4316 214.619 79.1787 219.679C76.939 224.71 78.0454 227.47 81.339 227.47Z" fill="white"/>
<path d="M101.923 231.061C97.2386 231.061 95.3857 228.583 97.1661 224.22H100.716C99.841 226.55 101.134 227.677 103.402 227.677C105.778 227.677 108.013 226.386 108.858 224.487C109.625 222.766 108.491 222.039 106.595 221.415L104.604 220.762C101.666 219.813 100.514 217.943 101.902 214.827C103.639 210.924 107.934 208.312 112.145 208.312C116.438 208.312 118.117 210.969 116.566 214.664H113.07C113.734 212.779 112.765 211.681 110.591 211.681C108.324 211.681 106.399 212.913 105.652 214.589C104.826 216.444 106.291 217.186 107.726 217.631L109.365 218.166C111.998 218.952 114.167 220.659 112.449 224.517C110.718 228.405 106.728 231.061 101.923 231.061Z" fill="white"/>
<path d="M122.391 231.061C117.707 231.061 115.854 228.583 117.634 224.22H121.184C120.309 226.55 121.602 227.677 123.87 227.677C126.246 227.677 128.481 226.386 129.326 224.487C130.093 222.766 128.959 222.039 127.063 221.415L125.072 220.762C122.134 219.813 120.982 217.943 122.37 214.827C124.107 210.924 128.402 208.312 132.613 208.312C136.906 208.312 138.585 210.969 137.034 214.664H133.538C134.202 212.779 133.233 211.681 131.06 211.681C128.792 211.681 126.867 212.913 126.12 214.589C125.294 216.444 126.759 217.186 128.194 217.631L129.833 218.166C132.466 218.952 134.635 220.659 132.917 224.517C131.186 228.405 127.196 231.061 122.391 231.061Z" fill="white"/>
<path d="M152.857 211.948L154.344 208.609H170.353L168.867 211.948H162.671L154.313 230.719H150.709L159.067 211.948H152.857Z" fill="white"/>
<path d="M166.142 230.719L175.986 208.609H183.505C188.135 208.609 189.317 211.473 187.44 215.688C186.106 218.685 183.879 220.896 181.041 221.935L181.49 230.719H177.454L177.113 222.603H173.36L169.746 230.719H166.142ZM174.82 219.323H178.208C180.922 219.323 182.711 218.032 183.755 215.688C184.806 213.328 184.212 211.933 181.472 211.933H178.111L174.82 219.323Z" fill="white"/>
<path d="M185.314 230.719L202.178 208.609H206.754L204.091 230.719H200.136L200.859 225.244H193.341L189.256 230.719H185.314ZM195.72 222.053H201.295L201.672 219.234C201.984 217.201 202.439 214.753 203.058 211.696C200.968 214.782 199.257 217.26 197.825 219.234L195.72 222.053Z" fill="white"/>
<path d="M222.713 208.609L212.869 230.719H209.265L219.109 208.609H222.713Z" fill="white"/>
<path d="M219.42 230.719L229.264 208.609H233.341L234.869 220.792C235.022 222.053 235.153 223.73 235.046 225.941C235.863 223.804 236.779 221.564 237.381 220.213L242.547 208.609H246.205L236.361 230.719H232.271L230.877 219.753C230.65 217.899 230.594 216.326 230.526 213.447C229.445 216.177 228.529 218.507 227.981 219.739L223.092 230.719H219.42Z" fill="white"/>
<path d="M256.36 208.609L246.516 230.719H242.912L252.756 208.609H256.36Z" fill="white"/>
<path d="M253.067 230.719L262.911 208.609H266.988L268.516 220.792C268.669 222.053 268.8 223.73 268.693 225.941C269.51 223.804 270.426 221.564 271.027 220.213L276.194 208.609H279.852L270.008 230.719H265.918L264.523 219.753C264.296 217.899 264.241 216.326 264.173 213.447C263.092 216.177 262.176 218.507 261.628 219.739L256.739 230.719H253.067Z" fill="white"/>
<path d="M285.106 231.016C279.559 231.016 277.722 226.683 280.833 219.694C284.005 212.571 289.842 208.312 295.107 208.312C299.534 208.312 301.608 211.325 300.293 215.673H296.608C297.011 213.313 296.012 211.859 293.568 211.859C290.315 211.859 286.697 214.649 284.464 219.664C282.238 224.665 283.311 227.47 286.699 227.47C289.723 227.47 292.551 225.452 294.033 222.276H289.389L290.777 219.16H298.916L297.734 221.816C295.203 227.499 290.074 231.016 285.106 231.016Z" fill="white"/>
</svg>
