<svg width="104" height="20" viewBox="0 0 104 20" fill="none" xmlns="http://www.w3.org/2000/svg" aria-label="Wellhub Logo"><path d="M93.9719 11.0646L93.9826 11.0609C94.0844 11.0195 94.1987 11.0383 94.2862 11.1078C96.6117 12.9818 101.266 10.6962 102.609 9.23017C103.02 8.78095 103.197 8.17198 103.097 7.55737C102.995 6.94087 102.632 6.42775 102.102 6.1477L101.807 5.99546L101.818 6.02553C101.059 5.77179 100.211 6.11199 99.6373 6.92396C99.5355 7.0668 99.4229 7.2322 99.2997 7.41264C98.5049 8.57796 97.1743 10.5308 95.9544 10.7319C95.6097 10.7883 95.3007 10.7056 95.006 10.4782C94.8899 10.388 94.8417 10.2263 94.8881 10.0854L94.8917 10.0741C94.931 9.95379 95.0167 9.86546 95.1185 9.83726C97.928 9.04597 99.1175 3.81142 98.8675 1.81345C98.7907 1.19508 98.4478 0.668808 97.9298 0.369959C97.4083 0.0692306 96.8028 0.0485555 96.2652 0.313572L96.2277 0.332368C95.4007 0.736472 95.0292 1.74015 95.3007 2.83029C95.3436 3.00321 95.3972 3.19868 95.4543 3.41107C95.9419 5.23048 96.7564 8.27535 95.1364 8.83734C94.9775 8.89185 94.806 8.82794 94.7149 8.68698L94.7042 8.67006C94.6381 8.56856 94.6274 8.437 94.672 8.32234C95.7758 5.51429 92.6538 1.3041 91.041 0.27974C90.5355 -0.041663 89.9336 -0.0886517 89.3871 0.151931C88.837 0.392514 88.4423 0.881197 88.303 1.49017L88.294 1.53152C88.0797 2.46566 88.5923 3.39792 89.5693 3.85089C89.7247 3.92419 89.905 4.00313 90.0997 4.08959C91.7661 4.82826 94.5524 6.065 93.9094 7.76788C93.854 7.91448 93.7093 8.00658 93.5468 7.99718C93.4236 7.98966 93.3128 7.91824 93.2575 7.80923C91.8751 5.13086 86.7955 5.07824 85.0202 5.77179C84.4665 5.98794 84.0575 6.45595 83.895 7.05553C83.7324 7.65886 83.8467 8.28663 84.2129 8.78471L84.2361 8.81666C84.7951 9.576 85.806 9.73577 86.7527 9.21325C86.9027 9.13055 87.0724 9.03281 87.2581 8.92568C88.8549 8.00846 91.5286 6.47286 92.3752 8.10432C92.443 8.234 92.4234 8.39941 92.3252 8.51406L92.3144 8.52722C92.2305 8.62119 92.109 8.66442 91.9894 8.64187C89.1442 8.1062 85.9311 12.26 85.3381 14.1584C85.1524 14.7504 85.2452 15.3819 85.5899 15.8894C85.9346 16.3988 86.474 16.6939 87.067 16.7033H87.1045C87.1045 16.7033 87.1224 16.7033 87.1295 16.7033C88.0297 16.7033 88.7673 15.974 88.9674 14.8782C88.9995 14.7015 89.0334 14.5004 89.071 14.2805C89.3103 12.8483 89.7104 10.45 90.7481 9.73765C91.0499 9.5309 91.3821 9.47639 91.7643 9.576C91.8733 9.6042 91.959 9.70569 91.9751 9.82598L91.9804 9.85794C91.9965 9.96695 91.9554 10.0778 91.8697 10.153C89.6193 12.1266 90.6963 17.4194 91.7554 19.1241C92.0787 19.6448 92.602 19.9624 93.1932 19.9962C93.2271 19.9981 93.2611 20 93.2968 20C93.8522 20 94.3666 19.7444 94.7256 19.2801L94.7453 19.2538C95.3239 18.5114 95.2471 17.4363 94.5524 16.5811C94.4416 16.4458 94.3148 16.2935 94.1755 16.1262C93.261 15.0361 91.7322 13.2092 91.8501 11.9085C91.884 11.5289 92.0519 11.2225 92.3644 10.9688C92.4591 10.8917 92.5948 10.8842 92.702 10.95C92.7967 11.0082 92.8556 11.1172 92.8592 11.2394C92.9146 14.3294 97.5154 16.7409 99.4408 16.9326C100.028 16.9908 100.591 16.7578 100.984 16.2935C101.38 15.8255 101.536 15.2053 101.411 14.5925L101.402 14.5493C101.211 13.6095 100.373 13.0062 99.2997 13.04C99.13 13.0457 98.9371 13.0569 98.7264 13.0682C97.3511 13.1396 95.0489 13.2618 94.1559 12.3577C93.8951 12.0946 93.7719 11.7676 93.7754 11.3559C93.7754 11.2263 93.8558 11.1116 93.9755 11.0665L93.9719 11.0646Z" fill="#FBF8EC"></path><path d="M0 7.23004H3.44649L5.15828 11.8175C5.37593 12.4023 6.15164 12.404 6.37256 11.821L8.11381 7.23004H11.1708L13.061 11.9153C13.2917 12.4878 14.0576 12.4756 14.272 11.8943L15.9871 7.23004H19.3223L15.3014 16.9723H12.1887L10.1856 12.034C9.95652 11.4701 9.20536 11.4736 8.98116 12.0409L7.03862 16.974H3.98163L0 7.23004Z" fill="#FBF8EC"></path><path d="M18.7319 12.13C18.7319 9.0874 21.3078 6.95251 25.1798 6.95251C29.0518 6.95251 31.4051 9.18515 31.4051 12.1701V12.7427H22.7905C22.4337 12.7427 22.1931 13.1372 22.3421 13.4828C22.7561 14.4482 23.81 14.9945 25.3271 14.9945C26.5495 14.9945 27.4578 14.6 27.9766 14.0467C28.0879 13.928 28.1811 13.8093 28.2548 13.6906L31.3118 14.2038C31.2381 14.3818 31.1269 14.5599 30.9976 14.717C29.9044 16.3579 27.9226 17.3459 25.2731 17.3459C21.3634 17.3459 18.7336 15.2703 18.7336 12.1282L18.7319 12.13ZM27.3056 10.9447C27.7344 10.9447 27.9553 10.4018 27.6673 10.0649C27.1812 9.49587 26.3499 9.14675 25.2354 9.14675C24.121 9.14675 23.2569 9.48016 22.7234 10.0702C22.4272 10.3966 22.6612 10.9465 23.0883 10.9465H27.3072L27.3056 10.9447Z" fill="#FBF8EC"></path><path d="M32.3281 3.1405H35.6993V16.9727H32.3281V3.1405Z" fill="#FBF8EC"></path><path d="M37.3291 3.1405H40.7003V16.9727H37.3291V3.1405Z" fill="#FBF8EC"></path><path d="M42.3306 3.1405H45.7018V7.70178C45.7018 8.14865 46.1927 8.38955 46.5118 8.09803C47.3219 7.35789 48.4004 6.95466 49.7407 6.95466C52.3902 6.95466 54.0201 8.57458 54.0201 11.4601V16.9727H50.6849V12.0134C50.6849 10.3726 49.8143 9.48405 48.2956 9.48405C46.6657 9.48405 45.7018 10.5506 45.7018 12.3102V16.9745H42.3306V3.1405Z" fill="#FBF8EC"></path><path d="M55.1895 12.743V7.23038H58.5427V12.1792C58.5427 13.5669 59.5884 14.7033 60.8894 14.719C62.5276 14.7382 63.5258 13.6682 63.5258 11.8929V7.22864H66.879V16.9709H63.5815V16.8068C63.5815 16.2203 62.953 15.9078 62.5161 16.2622C61.7306 16.9011 60.7192 17.2467 59.4869 17.2467C56.8194 17.2467 55.1895 15.6268 55.1895 12.7413V12.743Z" fill="#FBF8EC"></path><path d="M71.6447 16.9029V16.9727H68.3472V3.1405H71.7184V7.72622C71.7184 8.1696 72.2028 8.41224 72.5235 8.12771C73.3827 7.36488 74.6068 6.91451 76.0355 6.91451C79.2218 6.91451 81.4081 9.04939 81.4081 12.1513C81.4081 15.2533 79.1858 17.348 75.9798 17.348C74.6575 17.348 73.5267 16.971 72.6823 16.3199C72.2502 15.9864 71.6447 16.3321 71.6447 16.9011V16.9029ZM74.795 14.9181C76.7212 14.9181 77.8896 13.8516 77.8896 12.1513C77.8896 10.4511 76.7588 9.40375 74.8326 9.40375C72.9065 9.40375 71.6644 10.4913 71.6644 12.1705C71.6644 13.8498 72.9048 14.9181 74.795 14.9181Z" fill="#FBF8EC"></path></svg>