<svg width="250" height="42" viewBox="0 0 250 42" fill="none" xmlns="http://www.w3.org/2000/svg">
<mask id="path-1-outside-1_2542_10088" maskUnits="userSpaceOnUse" x="0" y="0" width="250" height="42" fill="black">
<rect fill="white" width="250" height="42"/>
<path d="M14.6045 3C16.4639 3 18.041 3.20752 19.3359 3.62256C20.6641 4.0376 21.7764 4.57715 22.6729 5.24121C23.5693 5.90527 24.2915 6.65234 24.8394 7.48242C25.3872 8.3457 25.8105 9.20068 26.1094 10.0474C26.3916 10.9106 26.5742 11.7407 26.6572 12.5376C26.7568 13.3345 26.8066 14.0234 26.8066 14.6045C26.8066 15.4346 26.5659 16.165 26.0845 16.7959C25.603 17.4268 24.5156 17.7422 22.8223 17.7422C22.2744 17.7422 21.6519 17.6841 20.9546 17.5679C20.2739 17.4517 19.6846 17.2192 19.1865 16.8706C18.6885 16.5054 18.4395 15.9658 18.4395 15.252C18.4395 13.4756 18.1904 12.0728 17.6924 11.0435C17.2109 9.99756 16.1816 9.47461 14.6045 9.47461C13.791 9.47461 13.1602 9.64893 12.7119 9.99756C12.2803 10.3296 11.9648 10.6948 11.7656 11.0933C11.5166 11.6079 11.3838 12.1475 11.3672 12.7119V28.5C11.3838 29.1807 11.5166 29.8198 11.7656 30.4175C11.9648 30.8989 12.2803 31.3389 12.7119 31.7373C13.1602 32.1357 13.791 32.335 14.6045 32.335C16.1318 32.335 17.1528 31.7539 17.6675 30.5918C18.1821 29.4131 18.4395 28.0186 18.4395 26.4082C18.4395 25.6943 18.7549 25.1382 19.3857 24.7397C20.0332 24.3247 21.1787 24.1172 22.8223 24.1172C24.3164 24.1172 25.354 24.3745 25.9351 24.8892C26.5161 25.4038 26.8066 25.9766 26.8066 26.6074C26.8066 28.4336 26.4995 30.0688 25.8853 31.5132C25.2876 32.9409 24.4243 34.1528 23.2954 35.1489C21.0044 37.1909 17.958 38.2119 14.1562 38.2119C13.874 38.2119 13.3926 38.187 12.7119 38.1372C12.0479 38.0874 11.2925 37.9546 10.4458 37.7388C9.61572 37.5229 8.76074 37.1992 7.88086 36.7676C7.03418 36.3525 6.2373 35.7466 5.49023 34.9497C4.77637 34.1694 4.17871 33.2065 3.69727 32.061C3.23242 30.9155 3 29.5127 3 27.8525V13.957C3 12.5957 3.16602 11.3921 3.49805 10.3462C3.83008 9.28369 4.27002 8.37061 4.81787 7.60693C5.34912 6.82666 5.96338 6.1792 6.66064 5.66455C7.35791 5.1499 8.07178 4.71826 8.80225 4.36963C10.479 3.58936 12.4131 3.13281 14.6045 3Z"/>
<path d="M31.9365 32.2852V8.87695C31.9365 7.81445 31.9946 6.85986 32.1108 6.01318C32.2437 5.1499 32.5757 4.46924 33.1069 3.97119C33.6382 3.45654 34.4932 3.19922 35.6719 3.19922H43.8896C45.9482 3.29883 47.7744 3.73047 49.3682 4.49414C50.0488 4.82617 50.7129 5.23291 51.3604 5.71436C52.0244 6.1958 52.6138 6.80176 53.1284 7.53223C53.6431 8.24609 54.0581 9.10107 54.3735 10.0972C54.689 11.0767 54.8467 12.2139 54.8467 13.5088C54.8467 14.0566 54.7637 14.6875 54.5977 15.4014C54.4316 16.1152 54.1577 16.8623 53.7759 17.6426C53.5269 18.1738 53.1533 18.7134 52.6553 19.2612C52.1904 19.7759 51.6177 20.249 50.937 20.6807C50.2729 21.1123 49.4844 21.4609 48.5713 21.7266C49.9326 22.2578 51.1113 23.0962 52.1074 24.2417C53.1035 25.3872 53.6016 26.9727 53.6016 28.998V32.5342C53.6016 32.7334 53.6514 32.8994 53.751 33.0322C53.8506 33.165 53.9502 33.2812 54.0498 33.3809C54.4316 33.7627 54.6641 34.103 54.7471 34.4019C54.8135 34.6675 54.8467 34.9082 54.8467 35.124C54.8467 36.2363 54.4399 37.0415 53.6265 37.5396C52.813 38.021 51.8916 38.2617 50.8623 38.2617C49.7002 38.2617 48.6128 37.9131 47.6001 37.2158C46.5874 36.502 46.0811 35.5225 46.0811 34.2773V28.998C46.0811 27.4707 45.832 26.2505 45.334 25.3374C44.8359 24.4243 43.8066 23.9678 42.2461 23.9678H39.457V32.2852C39.457 33.3809 39.3906 34.3687 39.2578 35.2485C39.125 36.1118 38.793 36.8008 38.2617 37.3154C37.7471 37.8135 36.8838 38.0625 35.6719 38.0625C34.4932 38.0625 33.6382 37.8135 33.1069 37.3154C32.5757 36.8008 32.2437 36.1118 32.1108 35.2485C31.9946 34.3687 31.9365 33.3809 31.9365 32.2852ZM39.457 9.07617V18.3896H42.8438C43.6738 18.3564 44.4209 18.1572 45.085 17.792C45.749 17.4434 46.2886 16.9204 46.7036 16.2231C47.1187 15.5259 47.3262 14.6211 47.3262 13.5088C47.3262 12.5127 47.1187 11.6909 46.7036 11.0435C46.3052 10.396 45.7988 9.92285 45.1846 9.62402C44.5869 9.30859 43.873 9.12598 43.043 9.07617H39.457Z"/>
<path d="M58.3828 27.9521V13.0605C58.3828 11.4336 58.6152 10.0723 59.0801 8.97656C59.5449 7.84766 60.1426 6.90967 60.873 6.1626C61.6035 5.41553 62.4004 4.83447 63.2637 4.41943C63.6953 4.20361 64.1187 4.021 64.5337 3.87158C64.9653 3.72217 65.3887 3.58936 65.8037 3.47314C66.6338 3.25732 67.3726 3.12451 68.02 3.07471C68.6841 3.0249 69.1738 3 69.4893 3H70.3359C70.6514 3 71.1411 3.0249 71.8052 3.07471C72.4692 3.12451 73.208 3.25732 74.0215 3.47314C74.8516 3.67236 75.6982 3.98779 76.5615 4.41943C77.3916 4.81787 78.1802 5.40723 78.9272 6.1875C79.6245 6.93457 80.1973 7.87256 80.6455 9.00146C81.1104 10.1138 81.3428 11.4668 81.3428 13.0605V27.9521C81.3428 29.5957 81.1187 30.9902 80.6704 32.1357C80.2056 33.2812 79.6245 34.2358 78.9272 34.9995C78.23 35.7632 77.4414 36.3608 76.5615 36.7925C75.7314 37.2241 74.8848 37.5562 74.0215 37.7886C73.208 38.0044 72.4692 38.1372 71.8052 38.187C71.1411 38.2368 70.6514 38.2617 70.3359 38.2617H69.4893C69.1904 38.2617 68.7007 38.2368 68.02 38.187C67.356 38.1372 66.6172 38.0044 65.8037 37.7886C64.9902 37.5728 64.1436 37.2407 63.2637 36.7925C62.4004 36.3608 61.6035 35.7632 60.873 34.9995C60.1592 34.2358 59.5615 33.2812 59.0801 32.1357C58.6152 30.9902 58.3828 29.5957 58.3828 27.9521ZM66.6504 12.6621V28.8984C66.667 29.4795 66.8081 30.019 67.0737 30.5171C67.2896 30.9321 67.6133 31.3057 68.0449 31.6377C68.4932 31.9697 69.124 32.1357 69.9375 32.1357C70.7344 32.1357 71.3486 31.9697 71.7803 31.6377C72.2119 31.3057 72.5356 30.9321 72.7515 30.5171C72.9839 30.019 73.125 29.4795 73.1748 28.8984V12.6621C73.125 12.0811 72.9839 11.5415 72.7515 11.0435C72.5356 10.645 72.2119 10.2798 71.7803 9.94775C71.3486 9.59912 70.7344 9.4248 69.9375 9.4248C69.124 9.4248 68.4932 9.59912 68.0449 9.94775C67.6133 10.2798 67.2896 10.645 67.0737 11.0435C66.8081 11.5249 66.667 12.0645 66.6504 12.6621Z"/>
<path d="M93.7939 11.9648C93.8105 12.6621 94.0098 13.293 94.3916 13.8574C94.79 14.4053 95.313 14.9282 95.9604 15.4263C96.4917 15.8413 97.2305 16.3311 98.1768 16.8955C99.123 17.46 99.9448 17.9497 100.642 18.3647C101.489 18.8794 102.319 19.4521 103.132 20.083C103.946 20.6973 104.676 21.3945 105.324 22.1748C105.971 22.9551 106.494 23.835 106.893 24.8145C107.291 25.7939 107.507 26.9062 107.54 28.1514V28.3506C107.54 29.6787 107.374 30.8657 107.042 31.9116C106.378 33.8872 105.299 35.3564 103.805 36.3193C103.041 36.8174 102.277 37.1992 101.514 37.4648C100.7 37.7471 99.8784 37.9463 99.0483 38.0625C98.2349 38.1787 97.4629 38.2451 96.7324 38.2617H96.4834C95.1055 38.2617 93.8687 38.1206 92.7729 37.8384C91.7104 37.5562 90.7974 37.1826 90.0337 36.7178C89.27 36.2363 88.6392 35.6885 88.1411 35.0742C87.6265 34.46 87.2197 33.8208 86.9209 33.1567C86.6221 32.5093 86.4062 31.8618 86.2734 31.2144C86.1406 30.5669 86.0742 29.9609 86.0742 29.3965C86.0742 28.2676 86.4146 27.4209 87.0952 26.8564C87.7925 26.292 88.6309 26.0098 89.6104 26.0098C90.5566 26.0098 91.4282 26.3003 92.2251 26.8813C93.0386 27.4458 93.4619 28.2676 93.4951 29.3467C93.5283 30.5918 93.8105 31.4468 94.3418 31.9116C94.873 32.3599 95.6367 32.584 96.6328 32.584C97.7119 32.5508 98.5503 32.2769 99.1479 31.7622C99.7622 31.2476 100.069 30.3262 100.069 28.998C100.069 27.8525 99.729 26.8398 99.0483 25.96C98.3843 25.0801 97.5376 24.2749 96.5083 23.5444C95.479 22.7974 94.4082 22.0752 93.2959 21.3779C92.1338 20.6309 91.0381 19.8506 90.0088 19.0371C88.9795 18.207 88.1411 17.269 87.4937 16.2231C86.8462 15.1772 86.5059 13.957 86.4727 12.5625V12.1641C86.4893 10.3877 86.7217 8.91016 87.1699 7.73145C87.6348 6.55273 88.3154 5.61475 89.2119 4.91748C90.0918 4.22021 91.1792 3.73047 92.4741 3.44824C93.769 3.14941 95.2549 3 96.9316 3H97.5791C99.0732 3 100.368 3.16602 101.464 3.49805C102.526 3.83008 103.406 4.25342 104.104 4.76807C104.817 5.28271 105.382 5.86377 105.797 6.51123C106.195 7.14209 106.494 7.78125 106.693 8.42871C106.893 9.05957 107.017 9.64893 107.067 10.1968C107.117 10.7446 107.142 11.1846 107.142 11.5166C107.142 12.4961 106.785 13.293 106.071 13.9072C105.374 14.5049 104.519 14.8037 103.506 14.8037C102.742 14.8037 101.995 14.5215 101.265 13.957C100.534 13.3926 100.169 12.7783 100.169 12.1143C100.169 10.7529 99.9199 9.80664 99.4219 9.27539C98.9404 8.74414 98.2266 8.47852 97.2803 8.47852C96.1846 8.47852 95.3296 8.67773 94.7153 9.07617C94.1011 9.47461 93.7939 10.4375 93.7939 11.9648Z"/>
<path d="M119.045 11.9648C119.062 12.6621 119.261 13.293 119.643 13.8574C120.041 14.4053 120.564 14.9282 121.211 15.4263C121.743 15.8413 122.481 16.3311 123.428 16.8955C124.374 17.46 125.196 17.9497 125.893 18.3647C126.74 18.8794 127.57 19.4521 128.383 20.083C129.197 20.6973 129.927 21.3945 130.575 22.1748C131.222 22.9551 131.745 23.835 132.144 24.8145C132.542 25.7939 132.758 26.9062 132.791 28.1514V28.3506C132.791 29.6787 132.625 30.8657 132.293 31.9116C131.629 33.8872 130.55 35.3564 129.056 36.3193C128.292 36.8174 127.528 37.1992 126.765 37.4648C125.951 37.7471 125.129 37.9463 124.299 38.0625C123.486 38.1787 122.714 38.2451 121.983 38.2617H121.734C120.356 38.2617 119.12 38.1206 118.024 37.8384C116.961 37.5562 116.048 37.1826 115.285 36.7178C114.521 36.2363 113.89 35.6885 113.392 35.0742C112.877 34.46 112.471 33.8208 112.172 33.1567C111.873 32.5093 111.657 31.8618 111.524 31.2144C111.392 30.5669 111.325 29.9609 111.325 29.3965C111.325 28.2676 111.666 27.4209 112.346 26.8564C113.043 26.292 113.882 26.0098 114.861 26.0098C115.808 26.0098 116.679 26.3003 117.476 26.8813C118.29 27.4458 118.713 28.2676 118.746 29.3467C118.779 30.5918 119.062 31.4468 119.593 31.9116C120.124 32.3599 120.888 32.584 121.884 32.584C122.963 32.5508 123.801 32.2769 124.399 31.7622C125.013 31.2476 125.32 30.3262 125.32 28.998C125.32 27.8525 124.98 26.8398 124.299 25.96C123.635 25.0801 122.789 24.2749 121.759 23.5444C120.73 22.7974 119.659 22.0752 118.547 21.3779C117.385 20.6309 116.289 19.8506 115.26 19.0371C114.23 18.207 113.392 17.269 112.745 16.2231C112.097 15.1772 111.757 13.957 111.724 12.5625V12.1641C111.74 10.3877 111.973 8.91016 112.421 7.73145C112.886 6.55273 113.566 5.61475 114.463 4.91748C115.343 4.22021 116.43 3.73047 117.725 3.44824C119.02 3.14941 120.506 3 122.183 3H122.83C124.324 3 125.619 3.16602 126.715 3.49805C127.777 3.83008 128.657 4.25342 129.354 4.76807C130.068 5.28271 130.633 5.86377 131.048 6.51123C131.446 7.14209 131.745 7.78125 131.944 8.42871C132.144 9.05957 132.268 9.64893 132.318 10.1968C132.368 10.7446 132.393 11.1846 132.393 11.5166C132.393 12.4961 132.036 13.293 131.322 13.9072C130.625 14.5049 129.77 14.8037 128.757 14.8037C127.993 14.8037 127.246 14.5215 126.516 13.957C125.785 13.3926 125.42 12.7783 125.42 12.1143C125.42 10.7529 125.171 9.80664 124.673 9.27539C124.191 8.74414 123.478 8.47852 122.531 8.47852C121.436 8.47852 120.581 8.67773 119.966 9.07617C119.352 9.47461 119.045 10.4375 119.045 11.9648Z"/>
<path d="M151.269 34.377V8.92676C151.269 7.89746 151.352 6.95117 151.518 6.08789C151.684 5.20801 152.032 4.51074 152.563 3.99609C153.111 3.46484 153.941 3.19922 155.054 3.19922C156.249 3.19922 157.121 3.45654 157.668 3.97119C158.233 4.46924 158.59 5.1499 158.739 6.01318C158.905 6.87646 158.988 7.84766 158.988 8.92676V30.7412H163.869C164.865 30.7412 165.778 30.8242 166.608 30.9902C167.455 31.1562 168.127 31.4966 168.625 32.0112C169.14 32.5259 169.397 33.3145 169.397 34.377C169.397 35.4561 169.14 36.2612 168.625 36.7925C168.127 37.3071 167.463 37.6475 166.633 37.8135C165.803 37.9795 164.882 38.0625 163.869 38.0625H156.797C155.021 38.0625 153.651 37.8633 152.688 37.4648C151.742 37.0664 151.269 36.0371 151.269 34.377Z"/>
<path d="M175.125 32.335V8.92676C175.125 7.86426 175.216 6.90137 175.399 6.03809C175.582 5.1748 175.963 4.48584 176.544 3.97119C177.142 3.45654 178.047 3.19922 179.259 3.19922C180.471 3.19922 181.367 3.45654 181.948 3.97119C182.546 4.48584 182.936 5.1748 183.119 6.03809C183.301 6.90137 183.393 7.86426 183.393 8.92676V32.335C183.393 33.4141 183.301 34.3936 183.119 35.2734C182.953 36.1367 182.571 36.8174 181.973 37.3154C181.392 37.8135 180.487 38.0625 179.259 38.0625C178.063 38.0625 177.167 37.8135 176.569 37.3154C175.988 36.8008 175.598 36.1118 175.399 35.2485C175.216 34.3853 175.125 33.4141 175.125 32.335Z"/>
<path d="M190.116 27.9521V13.0605C190.116 11.4336 190.349 10.0723 190.813 8.97656C191.278 7.84766 191.876 6.90967 192.606 6.1626C193.337 5.41553 194.134 4.83447 194.997 4.41943C195.429 4.20361 195.852 4.021 196.267 3.87158C196.699 3.72217 197.122 3.58936 197.537 3.47314C198.367 3.25732 199.106 3.12451 199.753 3.07471C200.417 3.0249 200.907 3 201.223 3H202.069C202.385 3 202.875 3.0249 203.539 3.07471C204.203 3.12451 204.941 3.25732 205.755 3.47314C206.585 3.67236 207.432 3.98779 208.295 4.41943C209.125 4.81787 209.914 5.40723 210.661 6.1875C211.358 6.93457 211.931 7.87256 212.379 9.00146C212.844 10.1138 213.076 11.4668 213.076 13.0605V27.9521C213.076 29.5957 212.852 30.9902 212.404 32.1357C211.939 33.2812 211.358 34.2358 210.661 34.9995C209.963 35.7632 209.175 36.3608 208.295 36.7925C207.465 37.2241 206.618 37.5562 205.755 37.7886C204.941 38.0044 204.203 38.1372 203.539 38.187C202.875 38.2368 202.385 38.2617 202.069 38.2617H201.223C200.924 38.2617 200.434 38.2368 199.753 38.187C199.089 38.1372 198.351 38.0044 197.537 37.7886C196.724 37.5728 195.877 37.2407 194.997 36.7925C194.134 36.3608 193.337 35.7632 192.606 34.9995C191.893 34.2358 191.295 33.2812 190.813 32.1357C190.349 30.9902 190.116 29.5957 190.116 27.9521ZM198.384 12.6621V28.8984C198.4 29.4795 198.542 30.019 198.807 30.5171C199.023 30.9321 199.347 31.3057 199.778 31.6377C200.227 31.9697 200.857 32.1357 201.671 32.1357C202.468 32.1357 203.082 31.9697 203.514 31.6377C203.945 31.3057 204.269 30.9321 204.485 30.5171C204.717 30.019 204.858 29.4795 204.908 28.8984V12.6621C204.858 12.0811 204.717 11.5415 204.485 11.0435C204.269 10.645 203.945 10.2798 203.514 9.94775C203.082 9.59912 202.468 9.4248 201.671 9.4248C200.857 9.4248 200.227 9.59912 199.778 9.94775C199.347 10.2798 199.023 10.645 198.807 11.0435C198.542 11.5249 198.4 12.0645 198.384 12.6621Z"/>
<path d="M230.508 6.28711L238.427 27.7529H239.024V7.08398C239.024 5.90527 239.224 4.96729 239.622 4.27002C240.037 3.55615 240.95 3.19922 242.361 3.19922C243.938 3.19922 244.943 3.53955 245.375 4.22021C245.823 4.90088 246.047 5.85547 246.047 7.08398V32.335C246.047 33.4141 245.98 34.3936 245.848 35.2734C245.731 36.1367 245.416 36.8174 244.901 37.3154C244.387 37.8135 243.54 38.0625 242.361 38.0625H239.074C238.128 38.0625 237.356 37.8384 236.758 37.3901C236.161 36.9419 235.688 36.394 235.339 35.7466C234.99 35.0991 234.708 34.4766 234.492 33.8789L226.972 13.5088H226.374V34.1777C226.374 35.3564 226.175 36.3027 225.776 37.0166C225.378 37.7139 224.465 38.0625 223.037 38.0625C221.443 38.0625 220.422 37.7222 219.974 37.0415C219.526 36.3608 219.302 35.4062 219.302 34.1777V8.92676C219.302 7.84766 219.36 6.87646 219.476 6.01318C219.609 5.1499 219.941 4.46924 220.472 3.97119C221.003 3.45654 221.858 3.19922 223.037 3.19922H226.324C227.154 3.19922 227.827 3.36523 228.341 3.69727C228.873 4.0127 229.304 4.36133 229.636 4.74316C229.968 5.1416 230.259 5.65625 230.508 6.28711Z"/>
</mask>
<path d="M14.6045 3C16.4639 3 18.041 3.20752 19.3359 3.62256C20.6641 4.0376 21.7764 4.57715 22.6729 5.24121C23.5693 5.90527 24.2915 6.65234 24.8394 7.48242C25.3872 8.3457 25.8105 9.20068 26.1094 10.0474C26.3916 10.9106 26.5742 11.7407 26.6572 12.5376C26.7568 13.3345 26.8066 14.0234 26.8066 14.6045C26.8066 15.4346 26.5659 16.165 26.0845 16.7959C25.603 17.4268 24.5156 17.7422 22.8223 17.7422C22.2744 17.7422 21.6519 17.6841 20.9546 17.5679C20.2739 17.4517 19.6846 17.2192 19.1865 16.8706C18.6885 16.5054 18.4395 15.9658 18.4395 15.252C18.4395 13.4756 18.1904 12.0728 17.6924 11.0435C17.2109 9.99756 16.1816 9.47461 14.6045 9.47461C13.791 9.47461 13.1602 9.64893 12.7119 9.99756C12.2803 10.3296 11.9648 10.6948 11.7656 11.0933C11.5166 11.6079 11.3838 12.1475 11.3672 12.7119V28.5C11.3838 29.1807 11.5166 29.8198 11.7656 30.4175C11.9648 30.8989 12.2803 31.3389 12.7119 31.7373C13.1602 32.1357 13.791 32.335 14.6045 32.335C16.1318 32.335 17.1528 31.7539 17.6675 30.5918C18.1821 29.4131 18.4395 28.0186 18.4395 26.4082C18.4395 25.6943 18.7549 25.1382 19.3857 24.7397C20.0332 24.3247 21.1787 24.1172 22.8223 24.1172C24.3164 24.1172 25.354 24.3745 25.9351 24.8892C26.5161 25.4038 26.8066 25.9766 26.8066 26.6074C26.8066 28.4336 26.4995 30.0688 25.8853 31.5132C25.2876 32.9409 24.4243 34.1528 23.2954 35.1489C21.0044 37.1909 17.958 38.2119 14.1562 38.2119C13.874 38.2119 13.3926 38.187 12.7119 38.1372C12.0479 38.0874 11.2925 37.9546 10.4458 37.7388C9.61572 37.5229 8.76074 37.1992 7.88086 36.7676C7.03418 36.3525 6.2373 35.7466 5.49023 34.9497C4.77637 34.1694 4.17871 33.2065 3.69727 32.061C3.23242 30.9155 3 29.5127 3 27.8525V13.957C3 12.5957 3.16602 11.3921 3.49805 10.3462C3.83008 9.28369 4.27002 8.37061 4.81787 7.60693C5.34912 6.82666 5.96338 6.1792 6.66064 5.66455C7.35791 5.1499 8.07178 4.71826 8.80225 4.36963C10.479 3.58936 12.4131 3.13281 14.6045 3Z" fill="#00A3E1"/>
<path d="M31.9365 32.2852V8.87695C31.9365 7.81445 31.9946 6.85986 32.1108 6.01318C32.2437 5.1499 32.5757 4.46924 33.1069 3.97119C33.6382 3.45654 34.4932 3.19922 35.6719 3.19922H43.8896C45.9482 3.29883 47.7744 3.73047 49.3682 4.49414C50.0488 4.82617 50.7129 5.23291 51.3604 5.71436C52.0244 6.1958 52.6138 6.80176 53.1284 7.53223C53.6431 8.24609 54.0581 9.10107 54.3735 10.0972C54.689 11.0767 54.8467 12.2139 54.8467 13.5088C54.8467 14.0566 54.7637 14.6875 54.5977 15.4014C54.4316 16.1152 54.1577 16.8623 53.7759 17.6426C53.5269 18.1738 53.1533 18.7134 52.6553 19.2612C52.1904 19.7759 51.6177 20.249 50.937 20.6807C50.2729 21.1123 49.4844 21.4609 48.5713 21.7266C49.9326 22.2578 51.1113 23.0962 52.1074 24.2417C53.1035 25.3872 53.6016 26.9727 53.6016 28.998V32.5342C53.6016 32.7334 53.6514 32.8994 53.751 33.0322C53.8506 33.165 53.9502 33.2812 54.0498 33.3809C54.4316 33.7627 54.6641 34.103 54.7471 34.4019C54.8135 34.6675 54.8467 34.9082 54.8467 35.124C54.8467 36.2363 54.4399 37.0415 53.6265 37.5396C52.813 38.021 51.8916 38.2617 50.8623 38.2617C49.7002 38.2617 48.6128 37.9131 47.6001 37.2158C46.5874 36.502 46.0811 35.5225 46.0811 34.2773V28.998C46.0811 27.4707 45.832 26.2505 45.334 25.3374C44.8359 24.4243 43.8066 23.9678 42.2461 23.9678H39.457V32.2852C39.457 33.3809 39.3906 34.3687 39.2578 35.2485C39.125 36.1118 38.793 36.8008 38.2617 37.3154C37.7471 37.8135 36.8838 38.0625 35.6719 38.0625C34.4932 38.0625 33.6382 37.8135 33.1069 37.3154C32.5757 36.8008 32.2437 36.1118 32.1108 35.2485C31.9946 34.3687 31.9365 33.3809 31.9365 32.2852ZM39.457 9.07617V18.3896H42.8438C43.6738 18.3564 44.4209 18.1572 45.085 17.792C45.749 17.4434 46.2886 16.9204 46.7036 16.2231C47.1187 15.5259 47.3262 14.6211 47.3262 13.5088C47.3262 12.5127 47.1187 11.6909 46.7036 11.0435C46.3052 10.396 45.7988 9.92285 45.1846 9.62402C44.5869 9.30859 43.873 9.12598 43.043 9.07617H39.457Z" fill="#00A3E1"/>
<path d="M58.3828 27.9521V13.0605C58.3828 11.4336 58.6152 10.0723 59.0801 8.97656C59.5449 7.84766 60.1426 6.90967 60.873 6.1626C61.6035 5.41553 62.4004 4.83447 63.2637 4.41943C63.6953 4.20361 64.1187 4.021 64.5337 3.87158C64.9653 3.72217 65.3887 3.58936 65.8037 3.47314C66.6338 3.25732 67.3726 3.12451 68.02 3.07471C68.6841 3.0249 69.1738 3 69.4893 3H70.3359C70.6514 3 71.1411 3.0249 71.8052 3.07471C72.4692 3.12451 73.208 3.25732 74.0215 3.47314C74.8516 3.67236 75.6982 3.98779 76.5615 4.41943C77.3916 4.81787 78.1802 5.40723 78.9272 6.1875C79.6245 6.93457 80.1973 7.87256 80.6455 9.00146C81.1104 10.1138 81.3428 11.4668 81.3428 13.0605V27.9521C81.3428 29.5957 81.1187 30.9902 80.6704 32.1357C80.2056 33.2812 79.6245 34.2358 78.9272 34.9995C78.23 35.7632 77.4414 36.3608 76.5615 36.7925C75.7314 37.2241 74.8848 37.5562 74.0215 37.7886C73.208 38.0044 72.4692 38.1372 71.8052 38.187C71.1411 38.2368 70.6514 38.2617 70.3359 38.2617H69.4893C69.1904 38.2617 68.7007 38.2368 68.02 38.187C67.356 38.1372 66.6172 38.0044 65.8037 37.7886C64.9902 37.5728 64.1436 37.2407 63.2637 36.7925C62.4004 36.3608 61.6035 35.7632 60.873 34.9995C60.1592 34.2358 59.5615 33.2812 59.0801 32.1357C58.6152 30.9902 58.3828 29.5957 58.3828 27.9521ZM66.6504 12.6621V28.8984C66.667 29.4795 66.8081 30.019 67.0737 30.5171C67.2896 30.9321 67.6133 31.3057 68.0449 31.6377C68.4932 31.9697 69.124 32.1357 69.9375 32.1357C70.7344 32.1357 71.3486 31.9697 71.7803 31.6377C72.2119 31.3057 72.5356 30.9321 72.7515 30.5171C72.9839 30.019 73.125 29.4795 73.1748 28.8984V12.6621C73.125 12.0811 72.9839 11.5415 72.7515 11.0435C72.5356 10.645 72.2119 10.2798 71.7803 9.94775C71.3486 9.59912 70.7344 9.4248 69.9375 9.4248C69.124 9.4248 68.4932 9.59912 68.0449 9.94775C67.6133 10.2798 67.2896 10.645 67.0737 11.0435C66.8081 11.5249 66.667 12.0645 66.6504 12.6621Z" fill="#00A3E1"/>
<path d="M93.7939 11.9648C93.8105 12.6621 94.0098 13.293 94.3916 13.8574C94.79 14.4053 95.313 14.9282 95.9604 15.4263C96.4917 15.8413 97.2305 16.3311 98.1768 16.8955C99.123 17.46 99.9448 17.9497 100.642 18.3647C101.489 18.8794 102.319 19.4521 103.132 20.083C103.946 20.6973 104.676 21.3945 105.324 22.1748C105.971 22.9551 106.494 23.835 106.893 24.8145C107.291 25.7939 107.507 26.9062 107.54 28.1514V28.3506C107.54 29.6787 107.374 30.8657 107.042 31.9116C106.378 33.8872 105.299 35.3564 103.805 36.3193C103.041 36.8174 102.277 37.1992 101.514 37.4648C100.7 37.7471 99.8784 37.9463 99.0483 38.0625C98.2349 38.1787 97.4629 38.2451 96.7324 38.2617H96.4834C95.1055 38.2617 93.8687 38.1206 92.7729 37.8384C91.7104 37.5562 90.7974 37.1826 90.0337 36.7178C89.27 36.2363 88.6392 35.6885 88.1411 35.0742C87.6265 34.46 87.2197 33.8208 86.9209 33.1567C86.6221 32.5093 86.4062 31.8618 86.2734 31.2144C86.1406 30.5669 86.0742 29.9609 86.0742 29.3965C86.0742 28.2676 86.4146 27.4209 87.0952 26.8564C87.7925 26.292 88.6309 26.0098 89.6104 26.0098C90.5566 26.0098 91.4282 26.3003 92.2251 26.8813C93.0386 27.4458 93.4619 28.2676 93.4951 29.3467C93.5283 30.5918 93.8105 31.4468 94.3418 31.9116C94.873 32.3599 95.6367 32.584 96.6328 32.584C97.7119 32.5508 98.5503 32.2769 99.1479 31.7622C99.7622 31.2476 100.069 30.3262 100.069 28.998C100.069 27.8525 99.729 26.8398 99.0483 25.96C98.3843 25.0801 97.5376 24.2749 96.5083 23.5444C95.479 22.7974 94.4082 22.0752 93.2959 21.3779C92.1338 20.6309 91.0381 19.8506 90.0088 19.0371C88.9795 18.207 88.1411 17.269 87.4937 16.2231C86.8462 15.1772 86.5059 13.957 86.4727 12.5625V12.1641C86.4893 10.3877 86.7217 8.91016 87.1699 7.73145C87.6348 6.55273 88.3154 5.61475 89.2119 4.91748C90.0918 4.22021 91.1792 3.73047 92.4741 3.44824C93.769 3.14941 95.2549 3 96.9316 3H97.5791C99.0732 3 100.368 3.16602 101.464 3.49805C102.526 3.83008 103.406 4.25342 104.104 4.76807C104.817 5.28271 105.382 5.86377 105.797 6.51123C106.195 7.14209 106.494 7.78125 106.693 8.42871C106.893 9.05957 107.017 9.64893 107.067 10.1968C107.117 10.7446 107.142 11.1846 107.142 11.5166C107.142 12.4961 106.785 13.293 106.071 13.9072C105.374 14.5049 104.519 14.8037 103.506 14.8037C102.742 14.8037 101.995 14.5215 101.265 13.957C100.534 13.3926 100.169 12.7783 100.169 12.1143C100.169 10.7529 99.9199 9.80664 99.4219 9.27539C98.9404 8.74414 98.2266 8.47852 97.2803 8.47852C96.1846 8.47852 95.3296 8.67773 94.7153 9.07617C94.1011 9.47461 93.7939 10.4375 93.7939 11.9648Z" fill="#00A3E1"/>
<path d="M119.045 11.9648C119.062 12.6621 119.261 13.293 119.643 13.8574C120.041 14.4053 120.564 14.9282 121.211 15.4263C121.743 15.8413 122.481 16.3311 123.428 16.8955C124.374 17.46 125.196 17.9497 125.893 18.3647C126.74 18.8794 127.57 19.4521 128.383 20.083C129.197 20.6973 129.927 21.3945 130.575 22.1748C131.222 22.9551 131.745 23.835 132.144 24.8145C132.542 25.7939 132.758 26.9062 132.791 28.1514V28.3506C132.791 29.6787 132.625 30.8657 132.293 31.9116C131.629 33.8872 130.55 35.3564 129.056 36.3193C128.292 36.8174 127.528 37.1992 126.765 37.4648C125.951 37.7471 125.129 37.9463 124.299 38.0625C123.486 38.1787 122.714 38.2451 121.983 38.2617H121.734C120.356 38.2617 119.12 38.1206 118.024 37.8384C116.961 37.5562 116.048 37.1826 115.285 36.7178C114.521 36.2363 113.89 35.6885 113.392 35.0742C112.877 34.46 112.471 33.8208 112.172 33.1567C111.873 32.5093 111.657 31.8618 111.524 31.2144C111.392 30.5669 111.325 29.9609 111.325 29.3965C111.325 28.2676 111.666 27.4209 112.346 26.8564C113.043 26.292 113.882 26.0098 114.861 26.0098C115.808 26.0098 116.679 26.3003 117.476 26.8813C118.29 27.4458 118.713 28.2676 118.746 29.3467C118.779 30.5918 119.062 31.4468 119.593 31.9116C120.124 32.3599 120.888 32.584 121.884 32.584C122.963 32.5508 123.801 32.2769 124.399 31.7622C125.013 31.2476 125.32 30.3262 125.32 28.998C125.32 27.8525 124.98 26.8398 124.299 25.96C123.635 25.0801 122.789 24.2749 121.759 23.5444C120.73 22.7974 119.659 22.0752 118.547 21.3779C117.385 20.6309 116.289 19.8506 115.26 19.0371C114.23 18.207 113.392 17.269 112.745 16.2231C112.097 15.1772 111.757 13.957 111.724 12.5625V12.1641C111.74 10.3877 111.973 8.91016 112.421 7.73145C112.886 6.55273 113.566 5.61475 114.463 4.91748C115.343 4.22021 116.43 3.73047 117.725 3.44824C119.02 3.14941 120.506 3 122.183 3H122.83C124.324 3 125.619 3.16602 126.715 3.49805C127.777 3.83008 128.657 4.25342 129.354 4.76807C130.068 5.28271 130.633 5.86377 131.048 6.51123C131.446 7.14209 131.745 7.78125 131.944 8.42871C132.144 9.05957 132.268 9.64893 132.318 10.1968C132.368 10.7446 132.393 11.1846 132.393 11.5166C132.393 12.4961 132.036 13.293 131.322 13.9072C130.625 14.5049 129.77 14.8037 128.757 14.8037C127.993 14.8037 127.246 14.5215 126.516 13.957C125.785 13.3926 125.42 12.7783 125.42 12.1143C125.42 10.7529 125.171 9.80664 124.673 9.27539C124.191 8.74414 123.478 8.47852 122.531 8.47852C121.436 8.47852 120.581 8.67773 119.966 9.07617C119.352 9.47461 119.045 10.4375 119.045 11.9648Z" fill="#00A3E1"/>
<path d="M151.269 34.377V8.92676C151.269 7.89746 151.352 6.95117 151.518 6.08789C151.684 5.20801 152.032 4.51074 152.563 3.99609C153.111 3.46484 153.941 3.19922 155.054 3.19922C156.249 3.19922 157.121 3.45654 157.668 3.97119C158.233 4.46924 158.59 5.1499 158.739 6.01318C158.905 6.87646 158.988 7.84766 158.988 8.92676V30.7412H163.869C164.865 30.7412 165.778 30.8242 166.608 30.9902C167.455 31.1562 168.127 31.4966 168.625 32.0112C169.14 32.5259 169.397 33.3145 169.397 34.377C169.397 35.4561 169.14 36.2612 168.625 36.7925C168.127 37.3071 167.463 37.6475 166.633 37.8135C165.803 37.9795 164.882 38.0625 163.869 38.0625H156.797C155.021 38.0625 153.651 37.8633 152.688 37.4648C151.742 37.0664 151.269 36.0371 151.269 34.377Z" fill="#00A3E1"/>
<path d="M175.125 32.335V8.92676C175.125 7.86426 175.216 6.90137 175.399 6.03809C175.582 5.1748 175.963 4.48584 176.544 3.97119C177.142 3.45654 178.047 3.19922 179.259 3.19922C180.471 3.19922 181.367 3.45654 181.948 3.97119C182.546 4.48584 182.936 5.1748 183.119 6.03809C183.301 6.90137 183.393 7.86426 183.393 8.92676V32.335C183.393 33.4141 183.301 34.3936 183.119 35.2734C182.953 36.1367 182.571 36.8174 181.973 37.3154C181.392 37.8135 180.487 38.0625 179.259 38.0625C178.063 38.0625 177.167 37.8135 176.569 37.3154C175.988 36.8008 175.598 36.1118 175.399 35.2485C175.216 34.3853 175.125 33.4141 175.125 32.335Z" fill="#00A3E1"/>
<path d="M190.116 27.9521V13.0605C190.116 11.4336 190.349 10.0723 190.813 8.97656C191.278 7.84766 191.876 6.90967 192.606 6.1626C193.337 5.41553 194.134 4.83447 194.997 4.41943C195.429 4.20361 195.852 4.021 196.267 3.87158C196.699 3.72217 197.122 3.58936 197.537 3.47314C198.367 3.25732 199.106 3.12451 199.753 3.07471C200.417 3.0249 200.907 3 201.223 3H202.069C202.385 3 202.875 3.0249 203.539 3.07471C204.203 3.12451 204.941 3.25732 205.755 3.47314C206.585 3.67236 207.432 3.98779 208.295 4.41943C209.125 4.81787 209.914 5.40723 210.661 6.1875C211.358 6.93457 211.931 7.87256 212.379 9.00146C212.844 10.1138 213.076 11.4668 213.076 13.0605V27.9521C213.076 29.5957 212.852 30.9902 212.404 32.1357C211.939 33.2812 211.358 34.2358 210.661 34.9995C209.963 35.7632 209.175 36.3608 208.295 36.7925C207.465 37.2241 206.618 37.5562 205.755 37.7886C204.941 38.0044 204.203 38.1372 203.539 38.187C202.875 38.2368 202.385 38.2617 202.069 38.2617H201.223C200.924 38.2617 200.434 38.2368 199.753 38.187C199.089 38.1372 198.351 38.0044 197.537 37.7886C196.724 37.5728 195.877 37.2407 194.997 36.7925C194.134 36.3608 193.337 35.7632 192.606 34.9995C191.893 34.2358 191.295 33.2812 190.813 32.1357C190.349 30.9902 190.116 29.5957 190.116 27.9521ZM198.384 12.6621V28.8984C198.4 29.4795 198.542 30.019 198.807 30.5171C199.023 30.9321 199.347 31.3057 199.778 31.6377C200.227 31.9697 200.857 32.1357 201.671 32.1357C202.468 32.1357 203.082 31.9697 203.514 31.6377C203.945 31.3057 204.269 30.9321 204.485 30.5171C204.717 30.019 204.858 29.4795 204.908 28.8984V12.6621C204.858 12.0811 204.717 11.5415 204.485 11.0435C204.269 10.645 203.945 10.2798 203.514 9.94775C203.082 9.59912 202.468 9.4248 201.671 9.4248C200.857 9.4248 200.227 9.59912 199.778 9.94775C199.347 10.2798 199.023 10.645 198.807 11.0435C198.542 11.5249 198.4 12.0645 198.384 12.6621Z" fill="#00A3E1"/>
<path d="M230.508 6.28711L238.427 27.7529H239.024V7.08398C239.024 5.90527 239.224 4.96729 239.622 4.27002C240.037 3.55615 240.95 3.19922 242.361 3.19922C243.938 3.19922 244.943 3.53955 245.375 4.22021C245.823 4.90088 246.047 5.85547 246.047 7.08398V32.335C246.047 33.4141 245.98 34.3936 245.848 35.2734C245.731 36.1367 245.416 36.8174 244.901 37.3154C244.387 37.8135 243.54 38.0625 242.361 38.0625H239.074C238.128 38.0625 237.356 37.8384 236.758 37.3901C236.161 36.9419 235.688 36.394 235.339 35.7466C234.99 35.0991 234.708 34.4766 234.492 33.8789L226.972 13.5088H226.374V34.1777C226.374 35.3564 226.175 36.3027 225.776 37.0166C225.378 37.7139 224.465 38.0625 223.037 38.0625C221.443 38.0625 220.422 37.7222 219.974 37.0415C219.526 36.3608 219.302 35.4062 219.302 34.1777V8.92676C219.302 7.84766 219.36 6.87646 219.476 6.01318C219.609 5.1499 219.941 4.46924 220.472 3.97119C221.003 3.45654 221.858 3.19922 223.037 3.19922H226.324C227.154 3.19922 227.827 3.36523 228.341 3.69727C228.873 4.0127 229.304 4.36133 229.636 4.74316C229.968 5.1416 230.259 5.65625 230.508 6.28711Z" fill="#00A3E1"/>
<path d="M14.6045 3C16.4639 3 18.041 3.20752 19.3359 3.62256C20.6641 4.0376 21.7764 4.57715 22.6729 5.24121C23.5693 5.90527 24.2915 6.65234 24.8394 7.48242C25.3872 8.3457 25.8105 9.20068 26.1094 10.0474C26.3916 10.9106 26.5742 11.7407 26.6572 12.5376C26.7568 13.3345 26.8066 14.0234 26.8066 14.6045C26.8066 15.4346 26.5659 16.165 26.0845 16.7959C25.603 17.4268 24.5156 17.7422 22.8223 17.7422C22.2744 17.7422 21.6519 17.6841 20.9546 17.5679C20.2739 17.4517 19.6846 17.2192 19.1865 16.8706C18.6885 16.5054 18.4395 15.9658 18.4395 15.252C18.4395 13.4756 18.1904 12.0728 17.6924 11.0435C17.2109 9.99756 16.1816 9.47461 14.6045 9.47461C13.791 9.47461 13.1602 9.64893 12.7119 9.99756C12.2803 10.3296 11.9648 10.6948 11.7656 11.0933C11.5166 11.6079 11.3838 12.1475 11.3672 12.7119V28.5C11.3838 29.1807 11.5166 29.8198 11.7656 30.4175C11.9648 30.8989 12.2803 31.3389 12.7119 31.7373C13.1602 32.1357 13.791 32.335 14.6045 32.335C16.1318 32.335 17.1528 31.7539 17.6675 30.5918C18.1821 29.4131 18.4395 28.0186 18.4395 26.4082C18.4395 25.6943 18.7549 25.1382 19.3857 24.7397C20.0332 24.3247 21.1787 24.1172 22.8223 24.1172C24.3164 24.1172 25.354 24.3745 25.9351 24.8892C26.5161 25.4038 26.8066 25.9766 26.8066 26.6074C26.8066 28.4336 26.4995 30.0688 25.8853 31.5132C25.2876 32.9409 24.4243 34.1528 23.2954 35.1489C21.0044 37.1909 17.958 38.2119 14.1562 38.2119C13.874 38.2119 13.3926 38.187 12.7119 38.1372C12.0479 38.0874 11.2925 37.9546 10.4458 37.7388C9.61572 37.5229 8.76074 37.1992 7.88086 36.7676C7.03418 36.3525 6.2373 35.7466 5.49023 34.9497C4.77637 34.1694 4.17871 33.2065 3.69727 32.061C3.23242 30.9155 3 29.5127 3 27.8525V13.957C3 12.5957 3.16602 11.3921 3.49805 10.3462C3.83008 9.28369 4.27002 8.37061 4.81787 7.60693C5.34912 6.82666 5.96338 6.1792 6.66064 5.66455C7.35791 5.1499 8.07178 4.71826 8.80225 4.36963C10.479 3.58936 12.4131 3.13281 14.6045 3Z" stroke="white" stroke-width="6" mask="url(#path-1-outside-1_2542_10088)"/>
<path d="M31.9365 32.2852V8.87695C31.9365 7.81445 31.9946 6.85986 32.1108 6.01318C32.2437 5.1499 32.5757 4.46924 33.1069 3.97119C33.6382 3.45654 34.4932 3.19922 35.6719 3.19922H43.8896C45.9482 3.29883 47.7744 3.73047 49.3682 4.49414C50.0488 4.82617 50.7129 5.23291 51.3604 5.71436C52.0244 6.1958 52.6138 6.80176 53.1284 7.53223C53.6431 8.24609 54.0581 9.10107 54.3735 10.0972C54.689 11.0767 54.8467 12.2139 54.8467 13.5088C54.8467 14.0566 54.7637 14.6875 54.5977 15.4014C54.4316 16.1152 54.1577 16.8623 53.7759 17.6426C53.5269 18.1738 53.1533 18.7134 52.6553 19.2612C52.1904 19.7759 51.6177 20.249 50.937 20.6807C50.2729 21.1123 49.4844 21.4609 48.5713 21.7266C49.9326 22.2578 51.1113 23.0962 52.1074 24.2417C53.1035 25.3872 53.6016 26.9727 53.6016 28.998V32.5342C53.6016 32.7334 53.6514 32.8994 53.751 33.0322C53.8506 33.165 53.9502 33.2812 54.0498 33.3809C54.4316 33.7627 54.6641 34.103 54.7471 34.4019C54.8135 34.6675 54.8467 34.9082 54.8467 35.124C54.8467 36.2363 54.4399 37.0415 53.6265 37.5396C52.813 38.021 51.8916 38.2617 50.8623 38.2617C49.7002 38.2617 48.6128 37.9131 47.6001 37.2158C46.5874 36.502 46.0811 35.5225 46.0811 34.2773V28.998C46.0811 27.4707 45.832 26.2505 45.334 25.3374C44.8359 24.4243 43.8066 23.9678 42.2461 23.9678H39.457V32.2852C39.457 33.3809 39.3906 34.3687 39.2578 35.2485C39.125 36.1118 38.793 36.8008 38.2617 37.3154C37.7471 37.8135 36.8838 38.0625 35.6719 38.0625C34.4932 38.0625 33.6382 37.8135 33.1069 37.3154C32.5757 36.8008 32.2437 36.1118 32.1108 35.2485C31.9946 34.3687 31.9365 33.3809 31.9365 32.2852ZM39.457 9.07617V18.3896H42.8438C43.6738 18.3564 44.4209 18.1572 45.085 17.792C45.749 17.4434 46.2886 16.9204 46.7036 16.2231C47.1187 15.5259 47.3262 14.6211 47.3262 13.5088C47.3262 12.5127 47.1187 11.6909 46.7036 11.0435C46.3052 10.396 45.7988 9.92285 45.1846 9.62402C44.5869 9.30859 43.873 9.12598 43.043 9.07617H39.457Z" stroke="white" stroke-width="6" mask="url(#path-1-outside-1_2542_10088)"/>
<path d="M58.3828 27.9521V13.0605C58.3828 11.4336 58.6152 10.0723 59.0801 8.97656C59.5449 7.84766 60.1426 6.90967 60.873 6.1626C61.6035 5.41553 62.4004 4.83447 63.2637 4.41943C63.6953 4.20361 64.1187 4.021 64.5337 3.87158C64.9653 3.72217 65.3887 3.58936 65.8037 3.47314C66.6338 3.25732 67.3726 3.12451 68.02 3.07471C68.6841 3.0249 69.1738 3 69.4893 3H70.3359C70.6514 3 71.1411 3.0249 71.8052 3.07471C72.4692 3.12451 73.208 3.25732 74.0215 3.47314C74.8516 3.67236 75.6982 3.98779 76.5615 4.41943C77.3916 4.81787 78.1802 5.40723 78.9272 6.1875C79.6245 6.93457 80.1973 7.87256 80.6455 9.00146C81.1104 10.1138 81.3428 11.4668 81.3428 13.0605V27.9521C81.3428 29.5957 81.1187 30.9902 80.6704 32.1357C80.2056 33.2812 79.6245 34.2358 78.9272 34.9995C78.23 35.7632 77.4414 36.3608 76.5615 36.7925C75.7314 37.2241 74.8848 37.5562 74.0215 37.7886C73.208 38.0044 72.4692 38.1372 71.8052 38.187C71.1411 38.2368 70.6514 38.2617 70.3359 38.2617H69.4893C69.1904 38.2617 68.7007 38.2368 68.02 38.187C67.356 38.1372 66.6172 38.0044 65.8037 37.7886C64.9902 37.5728 64.1436 37.2407 63.2637 36.7925C62.4004 36.3608 61.6035 35.7632 60.873 34.9995C60.1592 34.2358 59.5615 33.2812 59.0801 32.1357C58.6152 30.9902 58.3828 29.5957 58.3828 27.9521ZM66.6504 12.6621V28.8984C66.667 29.4795 66.8081 30.019 67.0737 30.5171C67.2896 30.9321 67.6133 31.3057 68.0449 31.6377C68.4932 31.9697 69.124 32.1357 69.9375 32.1357C70.7344 32.1357 71.3486 31.9697 71.7803 31.6377C72.2119 31.3057 72.5356 30.9321 72.7515 30.5171C72.9839 30.019 73.125 29.4795 73.1748 28.8984V12.6621C73.125 12.0811 72.9839 11.5415 72.7515 11.0435C72.5356 10.645 72.2119 10.2798 71.7803 9.94775C71.3486 9.59912 70.7344 9.4248 69.9375 9.4248C69.124 9.4248 68.4932 9.59912 68.0449 9.94775C67.6133 10.2798 67.2896 10.645 67.0737 11.0435C66.8081 11.5249 66.667 12.0645 66.6504 12.6621Z" stroke="white" stroke-width="6" mask="url(#path-1-outside-1_2542_10088)"/>
<path d="M93.7939 11.9648C93.8105 12.6621 94.0098 13.293 94.3916 13.8574C94.79 14.4053 95.313 14.9282 95.9604 15.4263C96.4917 15.8413 97.2305 16.3311 98.1768 16.8955C99.123 17.46 99.9448 17.9497 100.642 18.3647C101.489 18.8794 102.319 19.4521 103.132 20.083C103.946 20.6973 104.676 21.3945 105.324 22.1748C105.971 22.9551 106.494 23.835 106.893 24.8145C107.291 25.7939 107.507 26.9062 107.54 28.1514V28.3506C107.54 29.6787 107.374 30.8657 107.042 31.9116C106.378 33.8872 105.299 35.3564 103.805 36.3193C103.041 36.8174 102.277 37.1992 101.514 37.4648C100.7 37.7471 99.8784 37.9463 99.0483 38.0625C98.2349 38.1787 97.4629 38.2451 96.7324 38.2617H96.4834C95.1055 38.2617 93.8687 38.1206 92.7729 37.8384C91.7104 37.5562 90.7974 37.1826 90.0337 36.7178C89.27 36.2363 88.6392 35.6885 88.1411 35.0742C87.6265 34.46 87.2197 33.8208 86.9209 33.1567C86.6221 32.5093 86.4062 31.8618 86.2734 31.2144C86.1406 30.5669 86.0742 29.9609 86.0742 29.3965C86.0742 28.2676 86.4146 27.4209 87.0952 26.8564C87.7925 26.292 88.6309 26.0098 89.6104 26.0098C90.5566 26.0098 91.4282 26.3003 92.2251 26.8813C93.0386 27.4458 93.4619 28.2676 93.4951 29.3467C93.5283 30.5918 93.8105 31.4468 94.3418 31.9116C94.873 32.3599 95.6367 32.584 96.6328 32.584C97.7119 32.5508 98.5503 32.2769 99.1479 31.7622C99.7622 31.2476 100.069 30.3262 100.069 28.998C100.069 27.8525 99.729 26.8398 99.0483 25.96C98.3843 25.0801 97.5376 24.2749 96.5083 23.5444C95.479 22.7974 94.4082 22.0752 93.2959 21.3779C92.1338 20.6309 91.0381 19.8506 90.0088 19.0371C88.9795 18.207 88.1411 17.269 87.4937 16.2231C86.8462 15.1772 86.5059 13.957 86.4727 12.5625V12.1641C86.4893 10.3877 86.7217 8.91016 87.1699 7.73145C87.6348 6.55273 88.3154 5.61475 89.2119 4.91748C90.0918 4.22021 91.1792 3.73047 92.4741 3.44824C93.769 3.14941 95.2549 3 96.9316 3H97.5791C99.0732 3 100.368 3.16602 101.464 3.49805C102.526 3.83008 103.406 4.25342 104.104 4.76807C104.817 5.28271 105.382 5.86377 105.797 6.51123C106.195 7.14209 106.494 7.78125 106.693 8.42871C106.893 9.05957 107.017 9.64893 107.067 10.1968C107.117 10.7446 107.142 11.1846 107.142 11.5166C107.142 12.4961 106.785 13.293 106.071 13.9072C105.374 14.5049 104.519 14.8037 103.506 14.8037C102.742 14.8037 101.995 14.5215 101.265 13.957C100.534 13.3926 100.169 12.7783 100.169 12.1143C100.169 10.7529 99.9199 9.80664 99.4219 9.27539C98.9404 8.74414 98.2266 8.47852 97.2803 8.47852C96.1846 8.47852 95.3296 8.67773 94.7153 9.07617C94.1011 9.47461 93.7939 10.4375 93.7939 11.9648Z" stroke="white" stroke-width="6" mask="url(#path-1-outside-1_2542_10088)"/>
<path d="M119.045 11.9648C119.062 12.6621 119.261 13.293 119.643 13.8574C120.041 14.4053 120.564 14.9282 121.211 15.4263C121.743 15.8413 122.481 16.3311 123.428 16.8955C124.374 17.46 125.196 17.9497 125.893 18.3647C126.74 18.8794 127.57 19.4521 128.383 20.083C129.197 20.6973 129.927 21.3945 130.575 22.1748C131.222 22.9551 131.745 23.835 132.144 24.8145C132.542 25.7939 132.758 26.9062 132.791 28.1514V28.3506C132.791 29.6787 132.625 30.8657 132.293 31.9116C131.629 33.8872 130.55 35.3564 129.056 36.3193C128.292 36.8174 127.528 37.1992 126.765 37.4648C125.951 37.7471 125.129 37.9463 124.299 38.0625C123.486 38.1787 122.714 38.2451 121.983 38.2617H121.734C120.356 38.2617 119.12 38.1206 118.024 37.8384C116.961 37.5562 116.048 37.1826 115.285 36.7178C114.521 36.2363 113.89 35.6885 113.392 35.0742C112.877 34.46 112.471 33.8208 112.172 33.1567C111.873 32.5093 111.657 31.8618 111.524 31.2144C111.392 30.5669 111.325 29.9609 111.325 29.3965C111.325 28.2676 111.666 27.4209 112.346 26.8564C113.043 26.292 113.882 26.0098 114.861 26.0098C115.808 26.0098 116.679 26.3003 117.476 26.8813C118.29 27.4458 118.713 28.2676 118.746 29.3467C118.779 30.5918 119.062 31.4468 119.593 31.9116C120.124 32.3599 120.888 32.584 121.884 32.584C122.963 32.5508 123.801 32.2769 124.399 31.7622C125.013 31.2476 125.32 30.3262 125.32 28.998C125.32 27.8525 124.98 26.8398 124.299 25.96C123.635 25.0801 122.789 24.2749 121.759 23.5444C120.73 22.7974 119.659 22.0752 118.547 21.3779C117.385 20.6309 116.289 19.8506 115.26 19.0371C114.23 18.207 113.392 17.269 112.745 16.2231C112.097 15.1772 111.757 13.957 111.724 12.5625V12.1641C111.74 10.3877 111.973 8.91016 112.421 7.73145C112.886 6.55273 113.566 5.61475 114.463 4.91748C115.343 4.22021 116.43 3.73047 117.725 3.44824C119.02 3.14941 120.506 3 122.183 3H122.83C124.324 3 125.619 3.16602 126.715 3.49805C127.777 3.83008 128.657 4.25342 129.354 4.76807C130.068 5.28271 130.633 5.86377 131.048 6.51123C131.446 7.14209 131.745 7.78125 131.944 8.42871C132.144 9.05957 132.268 9.64893 132.318 10.1968C132.368 10.7446 132.393 11.1846 132.393 11.5166C132.393 12.4961 132.036 13.293 131.322 13.9072C130.625 14.5049 129.77 14.8037 128.757 14.8037C127.993 14.8037 127.246 14.5215 126.516 13.957C125.785 13.3926 125.42 12.7783 125.42 12.1143C125.42 10.7529 125.171 9.80664 124.673 9.27539C124.191 8.74414 123.478 8.47852 122.531 8.47852C121.436 8.47852 120.581 8.67773 119.966 9.07617C119.352 9.47461 119.045 10.4375 119.045 11.9648Z" stroke="white" stroke-width="6" mask="url(#path-1-outside-1_2542_10088)"/>
<path d="M151.269 34.377V8.92676C151.269 7.89746 151.352 6.95117 151.518 6.08789C151.684 5.20801 152.032 4.51074 152.563 3.99609C153.111 3.46484 153.941 3.19922 155.054 3.19922C156.249 3.19922 157.121 3.45654 157.668 3.97119C158.233 4.46924 158.59 5.1499 158.739 6.01318C158.905 6.87646 158.988 7.84766 158.988 8.92676V30.7412H163.869C164.865 30.7412 165.778 30.8242 166.608 30.9902C167.455 31.1562 168.127 31.4966 168.625 32.0112C169.14 32.5259 169.397 33.3145 169.397 34.377C169.397 35.4561 169.14 36.2612 168.625 36.7925C168.127 37.3071 167.463 37.6475 166.633 37.8135C165.803 37.9795 164.882 38.0625 163.869 38.0625H156.797C155.021 38.0625 153.651 37.8633 152.688 37.4648C151.742 37.0664 151.269 36.0371 151.269 34.377Z" stroke="white" stroke-width="6" mask="url(#path-1-outside-1_2542_10088)"/>
<path d="M175.125 32.335V8.92676C175.125 7.86426 175.216 6.90137 175.399 6.03809C175.582 5.1748 175.963 4.48584 176.544 3.97119C177.142 3.45654 178.047 3.19922 179.259 3.19922C180.471 3.19922 181.367 3.45654 181.948 3.97119C182.546 4.48584 182.936 5.1748 183.119 6.03809C183.301 6.90137 183.393 7.86426 183.393 8.92676V32.335C183.393 33.4141 183.301 34.3936 183.119 35.2734C182.953 36.1367 182.571 36.8174 181.973 37.3154C181.392 37.8135 180.487 38.0625 179.259 38.0625C178.063 38.0625 177.167 37.8135 176.569 37.3154C175.988 36.8008 175.598 36.1118 175.399 35.2485C175.216 34.3853 175.125 33.4141 175.125 32.335Z" stroke="white" stroke-width="6" mask="url(#path-1-outside-1_2542_10088)"/>
<path d="M190.116 27.9521V13.0605C190.116 11.4336 190.349 10.0723 190.813 8.97656C191.278 7.84766 191.876 6.90967 192.606 6.1626C193.337 5.41553 194.134 4.83447 194.997 4.41943C195.429 4.20361 195.852 4.021 196.267 3.87158C196.699 3.72217 197.122 3.58936 197.537 3.47314C198.367 3.25732 199.106 3.12451 199.753 3.07471C200.417 3.0249 200.907 3 201.223 3H202.069C202.385 3 202.875 3.0249 203.539 3.07471C204.203 3.12451 204.941 3.25732 205.755 3.47314C206.585 3.67236 207.432 3.98779 208.295 4.41943C209.125 4.81787 209.914 5.40723 210.661 6.1875C211.358 6.93457 211.931 7.87256 212.379 9.00146C212.844 10.1138 213.076 11.4668 213.076 13.0605V27.9521C213.076 29.5957 212.852 30.9902 212.404 32.1357C211.939 33.2812 211.358 34.2358 210.661 34.9995C209.963 35.7632 209.175 36.3608 208.295 36.7925C207.465 37.2241 206.618 37.5562 205.755 37.7886C204.941 38.0044 204.203 38.1372 203.539 38.187C202.875 38.2368 202.385 38.2617 202.069 38.2617H201.223C200.924 38.2617 200.434 38.2368 199.753 38.187C199.089 38.1372 198.351 38.0044 197.537 37.7886C196.724 37.5728 195.877 37.2407 194.997 36.7925C194.134 36.3608 193.337 35.7632 192.606 34.9995C191.893 34.2358 191.295 33.2812 190.813 32.1357C190.349 30.9902 190.116 29.5957 190.116 27.9521ZM198.384 12.6621V28.8984C198.4 29.4795 198.542 30.019 198.807 30.5171C199.023 30.9321 199.347 31.3057 199.778 31.6377C200.227 31.9697 200.857 32.1357 201.671 32.1357C202.468 32.1357 203.082 31.9697 203.514 31.6377C203.945 31.3057 204.269 30.9321 204.485 30.5171C204.717 30.019 204.858 29.4795 204.908 28.8984V12.6621C204.858 12.0811 204.717 11.5415 204.485 11.0435C204.269 10.645 203.945 10.2798 203.514 9.94775C203.082 9.59912 202.468 9.4248 201.671 9.4248C200.857 9.4248 200.227 9.59912 199.778 9.94775C199.347 10.2798 199.023 10.645 198.807 11.0435C198.542 11.5249 198.4 12.0645 198.384 12.6621Z" stroke="white" stroke-width="6" mask="url(#path-1-outside-1_2542_10088)"/>
<path d="M230.508 6.28711L238.427 27.7529H239.024V7.08398C239.024 5.90527 239.224 4.96729 239.622 4.27002C240.037 3.55615 240.95 3.19922 242.361 3.19922C243.938 3.19922 244.943 3.53955 245.375 4.22021C245.823 4.90088 246.047 5.85547 246.047 7.08398V32.335C246.047 33.4141 245.98 34.3936 245.848 35.2734C245.731 36.1367 245.416 36.8174 244.901 37.3154C244.387 37.8135 243.54 38.0625 242.361 38.0625H239.074C238.128 38.0625 237.356 37.8384 236.758 37.3901C236.161 36.9419 235.688 36.394 235.339 35.7466C234.99 35.0991 234.708 34.4766 234.492 33.8789L226.972 13.5088H226.374V34.1777C226.374 35.3564 226.175 36.3027 225.776 37.0166C225.378 37.7139 224.465 38.0625 223.037 38.0625C221.443 38.0625 220.422 37.7222 219.974 37.0415C219.526 36.3608 219.302 35.4062 219.302 34.1777V8.92676C219.302 7.84766 219.36 6.87646 219.476 6.01318C219.609 5.1499 219.941 4.46924 220.472 3.97119C221.003 3.45654 221.858 3.19922 223.037 3.19922H226.324C227.154 3.19922 227.827 3.36523 228.341 3.69727C228.873 4.0127 229.304 4.36133 229.636 4.74316C229.968 5.1416 230.259 5.65625 230.508 6.28711Z" stroke="white" stroke-width="6" mask="url(#path-1-outside-1_2542_10088)"/>
<mask id="path-2-outside-2_2542_10088" maskUnits="userSpaceOnUse" x="2" y="2" width="246" height="38" fill="black">
<rect fill="white" x="2" y="2" width="246" height="38"/>
<path d="M14.6045 3C16.4639 3 18.041 3.20752 19.3359 3.62256C20.6641 4.0376 21.7764 4.57715 22.6729 5.24121C23.5693 5.90527 24.2915 6.65234 24.8394 7.48242C25.3872 8.3457 25.8105 9.20068 26.1094 10.0474C26.3916 10.9106 26.5742 11.7407 26.6572 12.5376C26.7568 13.3345 26.8066 14.0234 26.8066 14.6045C26.8066 15.4346 26.5659 16.165 26.0845 16.7959C25.603 17.4268 24.5156 17.7422 22.8223 17.7422C22.2744 17.7422 21.6519 17.6841 20.9546 17.5679C20.2739 17.4517 19.6846 17.2192 19.1865 16.8706C18.6885 16.5054 18.4395 15.9658 18.4395 15.252C18.4395 13.4756 18.1904 12.0728 17.6924 11.0435C17.2109 9.99756 16.1816 9.47461 14.6045 9.47461C13.791 9.47461 13.1602 9.64893 12.7119 9.99756C12.2803 10.3296 11.9648 10.6948 11.7656 11.0933C11.5166 11.6079 11.3838 12.1475 11.3672 12.7119V28.5C11.3838 29.1807 11.5166 29.8198 11.7656 30.4175C11.9648 30.8989 12.2803 31.3389 12.7119 31.7373C13.1602 32.1357 13.791 32.335 14.6045 32.335C16.1318 32.335 17.1528 31.7539 17.6675 30.5918C18.1821 29.4131 18.4395 28.0186 18.4395 26.4082C18.4395 25.6943 18.7549 25.1382 19.3857 24.7397C20.0332 24.3247 21.1787 24.1172 22.8223 24.1172C24.3164 24.1172 25.354 24.3745 25.9351 24.8892C26.5161 25.4038 26.8066 25.9766 26.8066 26.6074C26.8066 28.4336 26.4995 30.0688 25.8853 31.5132C25.2876 32.9409 24.4243 34.1528 23.2954 35.1489C21.0044 37.1909 17.958 38.2119 14.1562 38.2119C13.874 38.2119 13.3926 38.187 12.7119 38.1372C12.0479 38.0874 11.2925 37.9546 10.4458 37.7388C9.61572 37.5229 8.76074 37.1992 7.88086 36.7676C7.03418 36.3525 6.2373 35.7466 5.49023 34.9497C4.77637 34.1694 4.17871 33.2065 3.69727 32.061C3.23242 30.9155 3 29.5127 3 27.8525V13.957C3 12.5957 3.16602 11.3921 3.49805 10.3462C3.83008 9.28369 4.27002 8.37061 4.81787 7.60693C5.34912 6.82666 5.96338 6.1792 6.66064 5.66455C7.35791 5.1499 8.07178 4.71826 8.80225 4.36963C10.479 3.58936 12.4131 3.13281 14.6045 3Z"/>
<path d="M31.9365 32.2852V8.87695C31.9365 7.81445 31.9946 6.85986 32.1108 6.01318C32.2437 5.1499 32.5757 4.46924 33.1069 3.97119C33.6382 3.45654 34.4932 3.19922 35.6719 3.19922H43.8896C45.9482 3.29883 47.7744 3.73047 49.3682 4.49414C50.0488 4.82617 50.7129 5.23291 51.3604 5.71436C52.0244 6.1958 52.6138 6.80176 53.1284 7.53223C53.6431 8.24609 54.0581 9.10107 54.3735 10.0972C54.689 11.0767 54.8467 12.2139 54.8467 13.5088C54.8467 14.0566 54.7637 14.6875 54.5977 15.4014C54.4316 16.1152 54.1577 16.8623 53.7759 17.6426C53.5269 18.1738 53.1533 18.7134 52.6553 19.2612C52.1904 19.7759 51.6177 20.249 50.937 20.6807C50.2729 21.1123 49.4844 21.4609 48.5713 21.7266C49.9326 22.2578 51.1113 23.0962 52.1074 24.2417C53.1035 25.3872 53.6016 26.9727 53.6016 28.998V32.5342C53.6016 32.7334 53.6514 32.8994 53.751 33.0322C53.8506 33.165 53.9502 33.2812 54.0498 33.3809C54.4316 33.7627 54.6641 34.103 54.7471 34.4019C54.8135 34.6675 54.8467 34.9082 54.8467 35.124C54.8467 36.2363 54.4399 37.0415 53.6265 37.5396C52.813 38.021 51.8916 38.2617 50.8623 38.2617C49.7002 38.2617 48.6128 37.9131 47.6001 37.2158C46.5874 36.502 46.0811 35.5225 46.0811 34.2773V28.998C46.0811 27.4707 45.832 26.2505 45.334 25.3374C44.8359 24.4243 43.8066 23.9678 42.2461 23.9678H39.457V32.2852C39.457 33.3809 39.3906 34.3687 39.2578 35.2485C39.125 36.1118 38.793 36.8008 38.2617 37.3154C37.7471 37.8135 36.8838 38.0625 35.6719 38.0625C34.4932 38.0625 33.6382 37.8135 33.1069 37.3154C32.5757 36.8008 32.2437 36.1118 32.1108 35.2485C31.9946 34.3687 31.9365 33.3809 31.9365 32.2852ZM39.457 9.07617V18.3896H42.8438C43.6738 18.3564 44.4209 18.1572 45.085 17.792C45.749 17.4434 46.2886 16.9204 46.7036 16.2231C47.1187 15.5259 47.3262 14.6211 47.3262 13.5088C47.3262 12.5127 47.1187 11.6909 46.7036 11.0435C46.3052 10.396 45.7988 9.92285 45.1846 9.62402C44.5869 9.30859 43.873 9.12598 43.043 9.07617H39.457Z"/>
<path d="M58.3828 27.9521V13.0605C58.3828 11.4336 58.6152 10.0723 59.0801 8.97656C59.5449 7.84766 60.1426 6.90967 60.873 6.1626C61.6035 5.41553 62.4004 4.83447 63.2637 4.41943C63.6953 4.20361 64.1187 4.021 64.5337 3.87158C64.9653 3.72217 65.3887 3.58936 65.8037 3.47314C66.6338 3.25732 67.3726 3.12451 68.02 3.07471C68.6841 3.0249 69.1738 3 69.4893 3H70.3359C70.6514 3 71.1411 3.0249 71.8052 3.07471C72.4692 3.12451 73.208 3.25732 74.0215 3.47314C74.8516 3.67236 75.6982 3.98779 76.5615 4.41943C77.3916 4.81787 78.1802 5.40723 78.9272 6.1875C79.6245 6.93457 80.1973 7.87256 80.6455 9.00146C81.1104 10.1138 81.3428 11.4668 81.3428 13.0605V27.9521C81.3428 29.5957 81.1187 30.9902 80.6704 32.1357C80.2056 33.2812 79.6245 34.2358 78.9272 34.9995C78.23 35.7632 77.4414 36.3608 76.5615 36.7925C75.7314 37.2241 74.8848 37.5562 74.0215 37.7886C73.208 38.0044 72.4692 38.1372 71.8052 38.187C71.1411 38.2368 70.6514 38.2617 70.3359 38.2617H69.4893C69.1904 38.2617 68.7007 38.2368 68.02 38.187C67.356 38.1372 66.6172 38.0044 65.8037 37.7886C64.9902 37.5728 64.1436 37.2407 63.2637 36.7925C62.4004 36.3608 61.6035 35.7632 60.873 34.9995C60.1592 34.2358 59.5615 33.2812 59.0801 32.1357C58.6152 30.9902 58.3828 29.5957 58.3828 27.9521ZM66.6504 12.6621V28.8984C66.667 29.4795 66.8081 30.019 67.0737 30.5171C67.2896 30.9321 67.6133 31.3057 68.0449 31.6377C68.4932 31.9697 69.124 32.1357 69.9375 32.1357C70.7344 32.1357 71.3486 31.9697 71.7803 31.6377C72.2119 31.3057 72.5356 30.9321 72.7515 30.5171C72.9839 30.019 73.125 29.4795 73.1748 28.8984V12.6621C73.125 12.0811 72.9839 11.5415 72.7515 11.0435C72.5356 10.645 72.2119 10.2798 71.7803 9.94775C71.3486 9.59912 70.7344 9.4248 69.9375 9.4248C69.124 9.4248 68.4932 9.59912 68.0449 9.94775C67.6133 10.2798 67.2896 10.645 67.0737 11.0435C66.8081 11.5249 66.667 12.0645 66.6504 12.6621Z"/>
<path d="M93.7939 11.9648C93.8105 12.6621 94.0098 13.293 94.3916 13.8574C94.79 14.4053 95.313 14.9282 95.9604 15.4263C96.4917 15.8413 97.2305 16.3311 98.1768 16.8955C99.123 17.46 99.9448 17.9497 100.642 18.3647C101.489 18.8794 102.319 19.4521 103.132 20.083C103.946 20.6973 104.676 21.3945 105.324 22.1748C105.971 22.9551 106.494 23.835 106.893 24.8145C107.291 25.7939 107.507 26.9062 107.54 28.1514V28.3506C107.54 29.6787 107.374 30.8657 107.042 31.9116C106.378 33.8872 105.299 35.3564 103.805 36.3193C103.041 36.8174 102.277 37.1992 101.514 37.4648C100.7 37.7471 99.8784 37.9463 99.0483 38.0625C98.2349 38.1787 97.4629 38.2451 96.7324 38.2617H96.4834C95.1055 38.2617 93.8687 38.1206 92.7729 37.8384C91.7104 37.5562 90.7974 37.1826 90.0337 36.7178C89.27 36.2363 88.6392 35.6885 88.1411 35.0742C87.6265 34.46 87.2197 33.8208 86.9209 33.1567C86.6221 32.5093 86.4062 31.8618 86.2734 31.2144C86.1406 30.5669 86.0742 29.9609 86.0742 29.3965C86.0742 28.2676 86.4146 27.4209 87.0952 26.8564C87.7925 26.292 88.6309 26.0098 89.6104 26.0098C90.5566 26.0098 91.4282 26.3003 92.2251 26.8813C93.0386 27.4458 93.4619 28.2676 93.4951 29.3467C93.5283 30.5918 93.8105 31.4468 94.3418 31.9116C94.873 32.3599 95.6367 32.584 96.6328 32.584C97.7119 32.5508 98.5503 32.2769 99.1479 31.7622C99.7622 31.2476 100.069 30.3262 100.069 28.998C100.069 27.8525 99.729 26.8398 99.0483 25.96C98.3843 25.0801 97.5376 24.2749 96.5083 23.5444C95.479 22.7974 94.4082 22.0752 93.2959 21.3779C92.1338 20.6309 91.0381 19.8506 90.0088 19.0371C88.9795 18.207 88.1411 17.269 87.4937 16.2231C86.8462 15.1772 86.5059 13.957 86.4727 12.5625V12.1641C86.4893 10.3877 86.7217 8.91016 87.1699 7.73145C87.6348 6.55273 88.3154 5.61475 89.2119 4.91748C90.0918 4.22021 91.1792 3.73047 92.4741 3.44824C93.769 3.14941 95.2549 3 96.9316 3H97.5791C99.0732 3 100.368 3.16602 101.464 3.49805C102.526 3.83008 103.406 4.25342 104.104 4.76807C104.817 5.28271 105.382 5.86377 105.797 6.51123C106.195 7.14209 106.494 7.78125 106.693 8.42871C106.893 9.05957 107.017 9.64893 107.067 10.1968C107.117 10.7446 107.142 11.1846 107.142 11.5166C107.142 12.4961 106.785 13.293 106.071 13.9072C105.374 14.5049 104.519 14.8037 103.506 14.8037C102.742 14.8037 101.995 14.5215 101.265 13.957C100.534 13.3926 100.169 12.7783 100.169 12.1143C100.169 10.7529 99.9199 9.80664 99.4219 9.27539C98.9404 8.74414 98.2266 8.47852 97.2803 8.47852C96.1846 8.47852 95.3296 8.67773 94.7153 9.07617C94.1011 9.47461 93.7939 10.4375 93.7939 11.9648Z"/>
<path d="M119.045 11.9648C119.062 12.6621 119.261 13.293 119.643 13.8574C120.041 14.4053 120.564 14.9282 121.211 15.4263C121.743 15.8413 122.481 16.3311 123.428 16.8955C124.374 17.46 125.196 17.9497 125.893 18.3647C126.74 18.8794 127.57 19.4521 128.383 20.083C129.197 20.6973 129.927 21.3945 130.575 22.1748C131.222 22.9551 131.745 23.835 132.144 24.8145C132.542 25.7939 132.758 26.9062 132.791 28.1514V28.3506C132.791 29.6787 132.625 30.8657 132.293 31.9116C131.629 33.8872 130.55 35.3564 129.056 36.3193C128.292 36.8174 127.528 37.1992 126.765 37.4648C125.951 37.7471 125.129 37.9463 124.299 38.0625C123.486 38.1787 122.714 38.2451 121.983 38.2617H121.734C120.356 38.2617 119.12 38.1206 118.024 37.8384C116.961 37.5562 116.048 37.1826 115.285 36.7178C114.521 36.2363 113.89 35.6885 113.392 35.0742C112.877 34.46 112.471 33.8208 112.172 33.1567C111.873 32.5093 111.657 31.8618 111.524 31.2144C111.392 30.5669 111.325 29.9609 111.325 29.3965C111.325 28.2676 111.666 27.4209 112.346 26.8564C113.043 26.292 113.882 26.0098 114.861 26.0098C115.808 26.0098 116.679 26.3003 117.476 26.8813C118.29 27.4458 118.713 28.2676 118.746 29.3467C118.779 30.5918 119.062 31.4468 119.593 31.9116C120.124 32.3599 120.888 32.584 121.884 32.584C122.963 32.5508 123.801 32.2769 124.399 31.7622C125.013 31.2476 125.32 30.3262 125.32 28.998C125.32 27.8525 124.98 26.8398 124.299 25.96C123.635 25.0801 122.789 24.2749 121.759 23.5444C120.73 22.7974 119.659 22.0752 118.547 21.3779C117.385 20.6309 116.289 19.8506 115.26 19.0371C114.23 18.207 113.392 17.269 112.745 16.2231C112.097 15.1772 111.757 13.957 111.724 12.5625V12.1641C111.74 10.3877 111.973 8.91016 112.421 7.73145C112.886 6.55273 113.566 5.61475 114.463 4.91748C115.343 4.22021 116.43 3.73047 117.725 3.44824C119.02 3.14941 120.506 3 122.183 3H122.83C124.324 3 125.619 3.16602 126.715 3.49805C127.777 3.83008 128.657 4.25342 129.354 4.76807C130.068 5.28271 130.633 5.86377 131.048 6.51123C131.446 7.14209 131.745 7.78125 131.944 8.42871C132.144 9.05957 132.268 9.64893 132.318 10.1968C132.368 10.7446 132.393 11.1846 132.393 11.5166C132.393 12.4961 132.036 13.293 131.322 13.9072C130.625 14.5049 129.77 14.8037 128.757 14.8037C127.993 14.8037 127.246 14.5215 126.516 13.957C125.785 13.3926 125.42 12.7783 125.42 12.1143C125.42 10.7529 125.171 9.80664 124.673 9.27539C124.191 8.74414 123.478 8.47852 122.531 8.47852C121.436 8.47852 120.581 8.67773 119.966 9.07617C119.352 9.47461 119.045 10.4375 119.045 11.9648Z"/>
<path d="M151.269 34.377V8.92676C151.269 7.89746 151.352 6.95117 151.518 6.08789C151.684 5.20801 152.032 4.51074 152.563 3.99609C153.111 3.46484 153.941 3.19922 155.054 3.19922C156.249 3.19922 157.121 3.45654 157.668 3.97119C158.233 4.46924 158.59 5.1499 158.739 6.01318C158.905 6.87646 158.988 7.84766 158.988 8.92676V30.7412H163.869C164.865 30.7412 165.778 30.8242 166.608 30.9902C167.455 31.1562 168.127 31.4966 168.625 32.0112C169.14 32.5259 169.397 33.3145 169.397 34.377C169.397 35.4561 169.14 36.2612 168.625 36.7925C168.127 37.3071 167.463 37.6475 166.633 37.8135C165.803 37.9795 164.882 38.0625 163.869 38.0625H156.797C155.021 38.0625 153.651 37.8633 152.688 37.4648C151.742 37.0664 151.269 36.0371 151.269 34.377Z"/>
<path d="M175.125 32.335V8.92676C175.125 7.86426 175.216 6.90137 175.399 6.03809C175.582 5.1748 175.963 4.48584 176.544 3.97119C177.142 3.45654 178.047 3.19922 179.259 3.19922C180.471 3.19922 181.367 3.45654 181.948 3.97119C182.546 4.48584 182.936 5.1748 183.119 6.03809C183.301 6.90137 183.393 7.86426 183.393 8.92676V32.335C183.393 33.4141 183.301 34.3936 183.119 35.2734C182.953 36.1367 182.571 36.8174 181.973 37.3154C181.392 37.8135 180.487 38.0625 179.259 38.0625C178.063 38.0625 177.167 37.8135 176.569 37.3154C175.988 36.8008 175.598 36.1118 175.399 35.2485C175.216 34.3853 175.125 33.4141 175.125 32.335Z"/>
<path d="M190.116 27.9521V13.0605C190.116 11.4336 190.349 10.0723 190.813 8.97656C191.278 7.84766 191.876 6.90967 192.606 6.1626C193.337 5.41553 194.134 4.83447 194.997 4.41943C195.429 4.20361 195.852 4.021 196.267 3.87158C196.699 3.72217 197.122 3.58936 197.537 3.47314C198.367 3.25732 199.106 3.12451 199.753 3.07471C200.417 3.0249 200.907 3 201.223 3H202.069C202.385 3 202.875 3.0249 203.539 3.07471C204.203 3.12451 204.941 3.25732 205.755 3.47314C206.585 3.67236 207.432 3.98779 208.295 4.41943C209.125 4.81787 209.914 5.40723 210.661 6.1875C211.358 6.93457 211.931 7.87256 212.379 9.00146C212.844 10.1138 213.076 11.4668 213.076 13.0605V27.9521C213.076 29.5957 212.852 30.9902 212.404 32.1357C211.939 33.2812 211.358 34.2358 210.661 34.9995C209.963 35.7632 209.175 36.3608 208.295 36.7925C207.465 37.2241 206.618 37.5562 205.755 37.7886C204.941 38.0044 204.203 38.1372 203.539 38.187C202.875 38.2368 202.385 38.2617 202.069 38.2617H201.223C200.924 38.2617 200.434 38.2368 199.753 38.187C199.089 38.1372 198.351 38.0044 197.537 37.7886C196.724 37.5728 195.877 37.2407 194.997 36.7925C194.134 36.3608 193.337 35.7632 192.606 34.9995C191.893 34.2358 191.295 33.2812 190.813 32.1357C190.349 30.9902 190.116 29.5957 190.116 27.9521ZM198.384 12.6621V28.8984C198.4 29.4795 198.542 30.019 198.807 30.5171C199.023 30.9321 199.347 31.3057 199.778 31.6377C200.227 31.9697 200.857 32.1357 201.671 32.1357C202.468 32.1357 203.082 31.9697 203.514 31.6377C203.945 31.3057 204.269 30.9321 204.485 30.5171C204.717 30.019 204.858 29.4795 204.908 28.8984V12.6621C204.858 12.0811 204.717 11.5415 204.485 11.0435C204.269 10.645 203.945 10.2798 203.514 9.94775C203.082 9.59912 202.468 9.4248 201.671 9.4248C200.857 9.4248 200.227 9.59912 199.778 9.94775C199.347 10.2798 199.023 10.645 198.807 11.0435C198.542 11.5249 198.4 12.0645 198.384 12.6621Z"/>
<path d="M230.508 6.28711L238.427 27.7529H239.024V7.08398C239.024 5.90527 239.224 4.96729 239.622 4.27002C240.037 3.55615 240.95 3.19922 242.361 3.19922C243.938 3.19922 244.943 3.53955 245.375 4.22021C245.823 4.90088 246.047 5.85547 246.047 7.08398V32.335C246.047 33.4141 245.98 34.3936 245.848 35.2734C245.731 36.1367 245.416 36.8174 244.901 37.3154C244.387 37.8135 243.54 38.0625 242.361 38.0625H239.074C238.128 38.0625 237.356 37.8384 236.758 37.3901C236.161 36.9419 235.688 36.394 235.339 35.7466C234.99 35.0991 234.708 34.4766 234.492 33.8789L226.972 13.5088H226.374V34.1777C226.374 35.3564 226.175 36.3027 225.776 37.0166C225.378 37.7139 224.465 38.0625 223.037 38.0625C221.443 38.0625 220.422 37.7222 219.974 37.0415C219.526 36.3608 219.302 35.4062 219.302 34.1777V8.92676C219.302 7.84766 219.36 6.87646 219.476 6.01318C219.609 5.1499 219.941 4.46924 220.472 3.97119C221.003 3.45654 221.858 3.19922 223.037 3.19922H226.324C227.154 3.19922 227.827 3.36523 228.341 3.69727C228.873 4.0127 229.304 4.36133 229.636 4.74316C229.968 5.1416 230.259 5.65625 230.508 6.28711Z"/>
</mask>
<path d="M14.6045 3C16.4639 3 18.041 3.20752 19.3359 3.62256C20.6641 4.0376 21.7764 4.57715 22.6729 5.24121C23.5693 5.90527 24.2915 6.65234 24.8394 7.48242C25.3872 8.3457 25.8105 9.20068 26.1094 10.0474C26.3916 10.9106 26.5742 11.7407 26.6572 12.5376C26.7568 13.3345 26.8066 14.0234 26.8066 14.6045C26.8066 15.4346 26.5659 16.165 26.0845 16.7959C25.603 17.4268 24.5156 17.7422 22.8223 17.7422C22.2744 17.7422 21.6519 17.6841 20.9546 17.5679C20.2739 17.4517 19.6846 17.2192 19.1865 16.8706C18.6885 16.5054 18.4395 15.9658 18.4395 15.252C18.4395 13.4756 18.1904 12.0728 17.6924 11.0435C17.2109 9.99756 16.1816 9.47461 14.6045 9.47461C13.791 9.47461 13.1602 9.64893 12.7119 9.99756C12.2803 10.3296 11.9648 10.6948 11.7656 11.0933C11.5166 11.6079 11.3838 12.1475 11.3672 12.7119V28.5C11.3838 29.1807 11.5166 29.8198 11.7656 30.4175C11.9648 30.8989 12.2803 31.3389 12.7119 31.7373C13.1602 32.1357 13.791 32.335 14.6045 32.335C16.1318 32.335 17.1528 31.7539 17.6675 30.5918C18.1821 29.4131 18.4395 28.0186 18.4395 26.4082C18.4395 25.6943 18.7549 25.1382 19.3857 24.7397C20.0332 24.3247 21.1787 24.1172 22.8223 24.1172C24.3164 24.1172 25.354 24.3745 25.9351 24.8892C26.5161 25.4038 26.8066 25.9766 26.8066 26.6074C26.8066 28.4336 26.4995 30.0688 25.8853 31.5132C25.2876 32.9409 24.4243 34.1528 23.2954 35.1489C21.0044 37.1909 17.958 38.2119 14.1562 38.2119C13.874 38.2119 13.3926 38.187 12.7119 38.1372C12.0479 38.0874 11.2925 37.9546 10.4458 37.7388C9.61572 37.5229 8.76074 37.1992 7.88086 36.7676C7.03418 36.3525 6.2373 35.7466 5.49023 34.9497C4.77637 34.1694 4.17871 33.2065 3.69727 32.061C3.23242 30.9155 3 29.5127 3 27.8525V13.957C3 12.5957 3.16602 11.3921 3.49805 10.3462C3.83008 9.28369 4.27002 8.37061 4.81787 7.60693C5.34912 6.82666 5.96338 6.1792 6.66064 5.66455C7.35791 5.1499 8.07178 4.71826 8.80225 4.36963C10.479 3.58936 12.4131 3.13281 14.6045 3Z" fill="#00A3E1"/>
<path d="M31.9365 32.2852V8.87695C31.9365 7.81445 31.9946 6.85986 32.1108 6.01318C32.2437 5.1499 32.5757 4.46924 33.1069 3.97119C33.6382 3.45654 34.4932 3.19922 35.6719 3.19922H43.8896C45.9482 3.29883 47.7744 3.73047 49.3682 4.49414C50.0488 4.82617 50.7129 5.23291 51.3604 5.71436C52.0244 6.1958 52.6138 6.80176 53.1284 7.53223C53.6431 8.24609 54.0581 9.10107 54.3735 10.0972C54.689 11.0767 54.8467 12.2139 54.8467 13.5088C54.8467 14.0566 54.7637 14.6875 54.5977 15.4014C54.4316 16.1152 54.1577 16.8623 53.7759 17.6426C53.5269 18.1738 53.1533 18.7134 52.6553 19.2612C52.1904 19.7759 51.6177 20.249 50.937 20.6807C50.2729 21.1123 49.4844 21.4609 48.5713 21.7266C49.9326 22.2578 51.1113 23.0962 52.1074 24.2417C53.1035 25.3872 53.6016 26.9727 53.6016 28.998V32.5342C53.6016 32.7334 53.6514 32.8994 53.751 33.0322C53.8506 33.165 53.9502 33.2812 54.0498 33.3809C54.4316 33.7627 54.6641 34.103 54.7471 34.4019C54.8135 34.6675 54.8467 34.9082 54.8467 35.124C54.8467 36.2363 54.4399 37.0415 53.6265 37.5396C52.813 38.021 51.8916 38.2617 50.8623 38.2617C49.7002 38.2617 48.6128 37.9131 47.6001 37.2158C46.5874 36.502 46.0811 35.5225 46.0811 34.2773V28.998C46.0811 27.4707 45.832 26.2505 45.334 25.3374C44.8359 24.4243 43.8066 23.9678 42.2461 23.9678H39.457V32.2852C39.457 33.3809 39.3906 34.3687 39.2578 35.2485C39.125 36.1118 38.793 36.8008 38.2617 37.3154C37.7471 37.8135 36.8838 38.0625 35.6719 38.0625C34.4932 38.0625 33.6382 37.8135 33.1069 37.3154C32.5757 36.8008 32.2437 36.1118 32.1108 35.2485C31.9946 34.3687 31.9365 33.3809 31.9365 32.2852ZM39.457 9.07617V18.3896H42.8438C43.6738 18.3564 44.4209 18.1572 45.085 17.792C45.749 17.4434 46.2886 16.9204 46.7036 16.2231C47.1187 15.5259 47.3262 14.6211 47.3262 13.5088C47.3262 12.5127 47.1187 11.6909 46.7036 11.0435C46.3052 10.396 45.7988 9.92285 45.1846 9.62402C44.5869 9.30859 43.873 9.12598 43.043 9.07617H39.457Z" fill="#00A3E1"/>
<path d="M58.3828 27.9521V13.0605C58.3828 11.4336 58.6152 10.0723 59.0801 8.97656C59.5449 7.84766 60.1426 6.90967 60.873 6.1626C61.6035 5.41553 62.4004 4.83447 63.2637 4.41943C63.6953 4.20361 64.1187 4.021 64.5337 3.87158C64.9653 3.72217 65.3887 3.58936 65.8037 3.47314C66.6338 3.25732 67.3726 3.12451 68.02 3.07471C68.6841 3.0249 69.1738 3 69.4893 3H70.3359C70.6514 3 71.1411 3.0249 71.8052 3.07471C72.4692 3.12451 73.208 3.25732 74.0215 3.47314C74.8516 3.67236 75.6982 3.98779 76.5615 4.41943C77.3916 4.81787 78.1802 5.40723 78.9272 6.1875C79.6245 6.93457 80.1973 7.87256 80.6455 9.00146C81.1104 10.1138 81.3428 11.4668 81.3428 13.0605V27.9521C81.3428 29.5957 81.1187 30.9902 80.6704 32.1357C80.2056 33.2812 79.6245 34.2358 78.9272 34.9995C78.23 35.7632 77.4414 36.3608 76.5615 36.7925C75.7314 37.2241 74.8848 37.5562 74.0215 37.7886C73.208 38.0044 72.4692 38.1372 71.8052 38.187C71.1411 38.2368 70.6514 38.2617 70.3359 38.2617H69.4893C69.1904 38.2617 68.7007 38.2368 68.02 38.187C67.356 38.1372 66.6172 38.0044 65.8037 37.7886C64.9902 37.5728 64.1436 37.2407 63.2637 36.7925C62.4004 36.3608 61.6035 35.7632 60.873 34.9995C60.1592 34.2358 59.5615 33.2812 59.0801 32.1357C58.6152 30.9902 58.3828 29.5957 58.3828 27.9521ZM66.6504 12.6621V28.8984C66.667 29.4795 66.8081 30.019 67.0737 30.5171C67.2896 30.9321 67.6133 31.3057 68.0449 31.6377C68.4932 31.9697 69.124 32.1357 69.9375 32.1357C70.7344 32.1357 71.3486 31.9697 71.7803 31.6377C72.2119 31.3057 72.5356 30.9321 72.7515 30.5171C72.9839 30.019 73.125 29.4795 73.1748 28.8984V12.6621C73.125 12.0811 72.9839 11.5415 72.7515 11.0435C72.5356 10.645 72.2119 10.2798 71.7803 9.94775C71.3486 9.59912 70.7344 9.4248 69.9375 9.4248C69.124 9.4248 68.4932 9.59912 68.0449 9.94775C67.6133 10.2798 67.2896 10.645 67.0737 11.0435C66.8081 11.5249 66.667 12.0645 66.6504 12.6621Z" fill="#00A3E1"/>
<path d="M93.7939 11.9648C93.8105 12.6621 94.0098 13.293 94.3916 13.8574C94.79 14.4053 95.313 14.9282 95.9604 15.4263C96.4917 15.8413 97.2305 16.3311 98.1768 16.8955C99.123 17.46 99.9448 17.9497 100.642 18.3647C101.489 18.8794 102.319 19.4521 103.132 20.083C103.946 20.6973 104.676 21.3945 105.324 22.1748C105.971 22.9551 106.494 23.835 106.893 24.8145C107.291 25.7939 107.507 26.9062 107.54 28.1514V28.3506C107.54 29.6787 107.374 30.8657 107.042 31.9116C106.378 33.8872 105.299 35.3564 103.805 36.3193C103.041 36.8174 102.277 37.1992 101.514 37.4648C100.7 37.7471 99.8784 37.9463 99.0483 38.0625C98.2349 38.1787 97.4629 38.2451 96.7324 38.2617H96.4834C95.1055 38.2617 93.8687 38.1206 92.7729 37.8384C91.7104 37.5562 90.7974 37.1826 90.0337 36.7178C89.27 36.2363 88.6392 35.6885 88.1411 35.0742C87.6265 34.46 87.2197 33.8208 86.9209 33.1567C86.6221 32.5093 86.4062 31.8618 86.2734 31.2144C86.1406 30.5669 86.0742 29.9609 86.0742 29.3965C86.0742 28.2676 86.4146 27.4209 87.0952 26.8564C87.7925 26.292 88.6309 26.0098 89.6104 26.0098C90.5566 26.0098 91.4282 26.3003 92.2251 26.8813C93.0386 27.4458 93.4619 28.2676 93.4951 29.3467C93.5283 30.5918 93.8105 31.4468 94.3418 31.9116C94.873 32.3599 95.6367 32.584 96.6328 32.584C97.7119 32.5508 98.5503 32.2769 99.1479 31.7622C99.7622 31.2476 100.069 30.3262 100.069 28.998C100.069 27.8525 99.729 26.8398 99.0483 25.96C98.3843 25.0801 97.5376 24.2749 96.5083 23.5444C95.479 22.7974 94.4082 22.0752 93.2959 21.3779C92.1338 20.6309 91.0381 19.8506 90.0088 19.0371C88.9795 18.207 88.1411 17.269 87.4937 16.2231C86.8462 15.1772 86.5059 13.957 86.4727 12.5625V12.1641C86.4893 10.3877 86.7217 8.91016 87.1699 7.73145C87.6348 6.55273 88.3154 5.61475 89.2119 4.91748C90.0918 4.22021 91.1792 3.73047 92.4741 3.44824C93.769 3.14941 95.2549 3 96.9316 3H97.5791C99.0732 3 100.368 3.16602 101.464 3.49805C102.526 3.83008 103.406 4.25342 104.104 4.76807C104.817 5.28271 105.382 5.86377 105.797 6.51123C106.195 7.14209 106.494 7.78125 106.693 8.42871C106.893 9.05957 107.017 9.64893 107.067 10.1968C107.117 10.7446 107.142 11.1846 107.142 11.5166C107.142 12.4961 106.785 13.293 106.071 13.9072C105.374 14.5049 104.519 14.8037 103.506 14.8037C102.742 14.8037 101.995 14.5215 101.265 13.957C100.534 13.3926 100.169 12.7783 100.169 12.1143C100.169 10.7529 99.9199 9.80664 99.4219 9.27539C98.9404 8.74414 98.2266 8.47852 97.2803 8.47852C96.1846 8.47852 95.3296 8.67773 94.7153 9.07617C94.1011 9.47461 93.7939 10.4375 93.7939 11.9648Z" fill="#00A3E1"/>
<path d="M119.045 11.9648C119.062 12.6621 119.261 13.293 119.643 13.8574C120.041 14.4053 120.564 14.9282 121.211 15.4263C121.743 15.8413 122.481 16.3311 123.428 16.8955C124.374 17.46 125.196 17.9497 125.893 18.3647C126.74 18.8794 127.57 19.4521 128.383 20.083C129.197 20.6973 129.927 21.3945 130.575 22.1748C131.222 22.9551 131.745 23.835 132.144 24.8145C132.542 25.7939 132.758 26.9062 132.791 28.1514V28.3506C132.791 29.6787 132.625 30.8657 132.293 31.9116C131.629 33.8872 130.55 35.3564 129.056 36.3193C128.292 36.8174 127.528 37.1992 126.765 37.4648C125.951 37.7471 125.129 37.9463 124.299 38.0625C123.486 38.1787 122.714 38.2451 121.983 38.2617H121.734C120.356 38.2617 119.12 38.1206 118.024 37.8384C116.961 37.5562 116.048 37.1826 115.285 36.7178C114.521 36.2363 113.89 35.6885 113.392 35.0742C112.877 34.46 112.471 33.8208 112.172 33.1567C111.873 32.5093 111.657 31.8618 111.524 31.2144C111.392 30.5669 111.325 29.9609 111.325 29.3965C111.325 28.2676 111.666 27.4209 112.346 26.8564C113.043 26.292 113.882 26.0098 114.861 26.0098C115.808 26.0098 116.679 26.3003 117.476 26.8813C118.29 27.4458 118.713 28.2676 118.746 29.3467C118.779 30.5918 119.062 31.4468 119.593 31.9116C120.124 32.3599 120.888 32.584 121.884 32.584C122.963 32.5508 123.801 32.2769 124.399 31.7622C125.013 31.2476 125.32 30.3262 125.32 28.998C125.32 27.8525 124.98 26.8398 124.299 25.96C123.635 25.0801 122.789 24.2749 121.759 23.5444C120.73 22.7974 119.659 22.0752 118.547 21.3779C117.385 20.6309 116.289 19.8506 115.26 19.0371C114.23 18.207 113.392 17.269 112.745 16.2231C112.097 15.1772 111.757 13.957 111.724 12.5625V12.1641C111.74 10.3877 111.973 8.91016 112.421 7.73145C112.886 6.55273 113.566 5.61475 114.463 4.91748C115.343 4.22021 116.43 3.73047 117.725 3.44824C119.02 3.14941 120.506 3 122.183 3H122.83C124.324 3 125.619 3.16602 126.715 3.49805C127.777 3.83008 128.657 4.25342 129.354 4.76807C130.068 5.28271 130.633 5.86377 131.048 6.51123C131.446 7.14209 131.745 7.78125 131.944 8.42871C132.144 9.05957 132.268 9.64893 132.318 10.1968C132.368 10.7446 132.393 11.1846 132.393 11.5166C132.393 12.4961 132.036 13.293 131.322 13.9072C130.625 14.5049 129.77 14.8037 128.757 14.8037C127.993 14.8037 127.246 14.5215 126.516 13.957C125.785 13.3926 125.42 12.7783 125.42 12.1143C125.42 10.7529 125.171 9.80664 124.673 9.27539C124.191 8.74414 123.478 8.47852 122.531 8.47852C121.436 8.47852 120.581 8.67773 119.966 9.07617C119.352 9.47461 119.045 10.4375 119.045 11.9648Z" fill="#00A3E1"/>
<path d="M151.269 34.377V8.92676C151.269 7.89746 151.352 6.95117 151.518 6.08789C151.684 5.20801 152.032 4.51074 152.563 3.99609C153.111 3.46484 153.941 3.19922 155.054 3.19922C156.249 3.19922 157.121 3.45654 157.668 3.97119C158.233 4.46924 158.59 5.1499 158.739 6.01318C158.905 6.87646 158.988 7.84766 158.988 8.92676V30.7412H163.869C164.865 30.7412 165.778 30.8242 166.608 30.9902C167.455 31.1562 168.127 31.4966 168.625 32.0112C169.14 32.5259 169.397 33.3145 169.397 34.377C169.397 35.4561 169.14 36.2612 168.625 36.7925C168.127 37.3071 167.463 37.6475 166.633 37.8135C165.803 37.9795 164.882 38.0625 163.869 38.0625H156.797C155.021 38.0625 153.651 37.8633 152.688 37.4648C151.742 37.0664 151.269 36.0371 151.269 34.377Z" fill="#00A3E1"/>
<path d="M175.125 32.335V8.92676C175.125 7.86426 175.216 6.90137 175.399 6.03809C175.582 5.1748 175.963 4.48584 176.544 3.97119C177.142 3.45654 178.047 3.19922 179.259 3.19922C180.471 3.19922 181.367 3.45654 181.948 3.97119C182.546 4.48584 182.936 5.1748 183.119 6.03809C183.301 6.90137 183.393 7.86426 183.393 8.92676V32.335C183.393 33.4141 183.301 34.3936 183.119 35.2734C182.953 36.1367 182.571 36.8174 181.973 37.3154C181.392 37.8135 180.487 38.0625 179.259 38.0625C178.063 38.0625 177.167 37.8135 176.569 37.3154C175.988 36.8008 175.598 36.1118 175.399 35.2485C175.216 34.3853 175.125 33.4141 175.125 32.335Z" fill="#00A3E1"/>
<path d="M190.116 27.9521V13.0605C190.116 11.4336 190.349 10.0723 190.813 8.97656C191.278 7.84766 191.876 6.90967 192.606 6.1626C193.337 5.41553 194.134 4.83447 194.997 4.41943C195.429 4.20361 195.852 4.021 196.267 3.87158C196.699 3.72217 197.122 3.58936 197.537 3.47314C198.367 3.25732 199.106 3.12451 199.753 3.07471C200.417 3.0249 200.907 3 201.223 3H202.069C202.385 3 202.875 3.0249 203.539 3.07471C204.203 3.12451 204.941 3.25732 205.755 3.47314C206.585 3.67236 207.432 3.98779 208.295 4.41943C209.125 4.81787 209.914 5.40723 210.661 6.1875C211.358 6.93457 211.931 7.87256 212.379 9.00146C212.844 10.1138 213.076 11.4668 213.076 13.0605V27.9521C213.076 29.5957 212.852 30.9902 212.404 32.1357C211.939 33.2812 211.358 34.2358 210.661 34.9995C209.963 35.7632 209.175 36.3608 208.295 36.7925C207.465 37.2241 206.618 37.5562 205.755 37.7886C204.941 38.0044 204.203 38.1372 203.539 38.187C202.875 38.2368 202.385 38.2617 202.069 38.2617H201.223C200.924 38.2617 200.434 38.2368 199.753 38.187C199.089 38.1372 198.351 38.0044 197.537 37.7886C196.724 37.5728 195.877 37.2407 194.997 36.7925C194.134 36.3608 193.337 35.7632 192.606 34.9995C191.893 34.2358 191.295 33.2812 190.813 32.1357C190.349 30.9902 190.116 29.5957 190.116 27.9521ZM198.384 12.6621V28.8984C198.4 29.4795 198.542 30.019 198.807 30.5171C199.023 30.9321 199.347 31.3057 199.778 31.6377C200.227 31.9697 200.857 32.1357 201.671 32.1357C202.468 32.1357 203.082 31.9697 203.514 31.6377C203.945 31.3057 204.269 30.9321 204.485 30.5171C204.717 30.019 204.858 29.4795 204.908 28.8984V12.6621C204.858 12.0811 204.717 11.5415 204.485 11.0435C204.269 10.645 203.945 10.2798 203.514 9.94775C203.082 9.59912 202.468 9.4248 201.671 9.4248C200.857 9.4248 200.227 9.59912 199.778 9.94775C199.347 10.2798 199.023 10.645 198.807 11.0435C198.542 11.5249 198.4 12.0645 198.384 12.6621Z" fill="#00A3E1"/>
<path d="M230.508 6.28711L238.427 27.7529H239.024V7.08398C239.024 5.90527 239.224 4.96729 239.622 4.27002C240.037 3.55615 240.95 3.19922 242.361 3.19922C243.938 3.19922 244.943 3.53955 245.375 4.22021C245.823 4.90088 246.047 5.85547 246.047 7.08398V32.335C246.047 33.4141 245.98 34.3936 245.848 35.2734C245.731 36.1367 245.416 36.8174 244.901 37.3154C244.387 37.8135 243.54 38.0625 242.361 38.0625H239.074C238.128 38.0625 237.356 37.8384 236.758 37.3901C236.161 36.9419 235.688 36.394 235.339 35.7466C234.99 35.0991 234.708 34.4766 234.492 33.8789L226.972 13.5088H226.374V34.1777C226.374 35.3564 226.175 36.3027 225.776 37.0166C225.378 37.7139 224.465 38.0625 223.037 38.0625C221.443 38.0625 220.422 37.7222 219.974 37.0415C219.526 36.3608 219.302 35.4062 219.302 34.1777V8.92676C219.302 7.84766 219.36 6.87646 219.476 6.01318C219.609 5.1499 219.941 4.46924 220.472 3.97119C221.003 3.45654 221.858 3.19922 223.037 3.19922H226.324C227.154 3.19922 227.827 3.36523 228.341 3.69727C228.873 4.0127 229.304 4.36133 229.636 4.74316C229.968 5.1416 230.259 5.65625 230.508 6.28711Z" fill="#00A3E1"/>
<path d="M14.6045 3C16.4639 3 18.041 3.20752 19.3359 3.62256C20.6641 4.0376 21.7764 4.57715 22.6729 5.24121C23.5693 5.90527 24.2915 6.65234 24.8394 7.48242C25.3872 8.3457 25.8105 9.20068 26.1094 10.0474C26.3916 10.9106 26.5742 11.7407 26.6572 12.5376C26.7568 13.3345 26.8066 14.0234 26.8066 14.6045C26.8066 15.4346 26.5659 16.165 26.0845 16.7959C25.603 17.4268 24.5156 17.7422 22.8223 17.7422C22.2744 17.7422 21.6519 17.6841 20.9546 17.5679C20.2739 17.4517 19.6846 17.2192 19.1865 16.8706C18.6885 16.5054 18.4395 15.9658 18.4395 15.252C18.4395 13.4756 18.1904 12.0728 17.6924 11.0435C17.2109 9.99756 16.1816 9.47461 14.6045 9.47461C13.791 9.47461 13.1602 9.64893 12.7119 9.99756C12.2803 10.3296 11.9648 10.6948 11.7656 11.0933C11.5166 11.6079 11.3838 12.1475 11.3672 12.7119V28.5C11.3838 29.1807 11.5166 29.8198 11.7656 30.4175C11.9648 30.8989 12.2803 31.3389 12.7119 31.7373C13.1602 32.1357 13.791 32.335 14.6045 32.335C16.1318 32.335 17.1528 31.7539 17.6675 30.5918C18.1821 29.4131 18.4395 28.0186 18.4395 26.4082C18.4395 25.6943 18.7549 25.1382 19.3857 24.7397C20.0332 24.3247 21.1787 24.1172 22.8223 24.1172C24.3164 24.1172 25.354 24.3745 25.9351 24.8892C26.5161 25.4038 26.8066 25.9766 26.8066 26.6074C26.8066 28.4336 26.4995 30.0688 25.8853 31.5132C25.2876 32.9409 24.4243 34.1528 23.2954 35.1489C21.0044 37.1909 17.958 38.2119 14.1562 38.2119C13.874 38.2119 13.3926 38.187 12.7119 38.1372C12.0479 38.0874 11.2925 37.9546 10.4458 37.7388C9.61572 37.5229 8.76074 37.1992 7.88086 36.7676C7.03418 36.3525 6.2373 35.7466 5.49023 34.9497C4.77637 34.1694 4.17871 33.2065 3.69727 32.061C3.23242 30.9155 3 29.5127 3 27.8525V13.957C3 12.5957 3.16602 11.3921 3.49805 10.3462C3.83008 9.28369 4.27002 8.37061 4.81787 7.60693C5.34912 6.82666 5.96338 6.1792 6.66064 5.66455C7.35791 5.1499 8.07178 4.71826 8.80225 4.36963C10.479 3.58936 12.4131 3.13281 14.6045 3Z" stroke="black" stroke-width="2" mask="url(#path-2-outside-2_2542_10088)"/>
<path d="M31.9365 32.2852V8.87695C31.9365 7.81445 31.9946 6.85986 32.1108 6.01318C32.2437 5.1499 32.5757 4.46924 33.1069 3.97119C33.6382 3.45654 34.4932 3.19922 35.6719 3.19922H43.8896C45.9482 3.29883 47.7744 3.73047 49.3682 4.49414C50.0488 4.82617 50.7129 5.23291 51.3604 5.71436C52.0244 6.1958 52.6138 6.80176 53.1284 7.53223C53.6431 8.24609 54.0581 9.10107 54.3735 10.0972C54.689 11.0767 54.8467 12.2139 54.8467 13.5088C54.8467 14.0566 54.7637 14.6875 54.5977 15.4014C54.4316 16.1152 54.1577 16.8623 53.7759 17.6426C53.5269 18.1738 53.1533 18.7134 52.6553 19.2612C52.1904 19.7759 51.6177 20.249 50.937 20.6807C50.2729 21.1123 49.4844 21.4609 48.5713 21.7266C49.9326 22.2578 51.1113 23.0962 52.1074 24.2417C53.1035 25.3872 53.6016 26.9727 53.6016 28.998V32.5342C53.6016 32.7334 53.6514 32.8994 53.751 33.0322C53.8506 33.165 53.9502 33.2812 54.0498 33.3809C54.4316 33.7627 54.6641 34.103 54.7471 34.4019C54.8135 34.6675 54.8467 34.9082 54.8467 35.124C54.8467 36.2363 54.4399 37.0415 53.6265 37.5396C52.813 38.021 51.8916 38.2617 50.8623 38.2617C49.7002 38.2617 48.6128 37.9131 47.6001 37.2158C46.5874 36.502 46.0811 35.5225 46.0811 34.2773V28.998C46.0811 27.4707 45.832 26.2505 45.334 25.3374C44.8359 24.4243 43.8066 23.9678 42.2461 23.9678H39.457V32.2852C39.457 33.3809 39.3906 34.3687 39.2578 35.2485C39.125 36.1118 38.793 36.8008 38.2617 37.3154C37.7471 37.8135 36.8838 38.0625 35.6719 38.0625C34.4932 38.0625 33.6382 37.8135 33.1069 37.3154C32.5757 36.8008 32.2437 36.1118 32.1108 35.2485C31.9946 34.3687 31.9365 33.3809 31.9365 32.2852ZM39.457 9.07617V18.3896H42.8438C43.6738 18.3564 44.4209 18.1572 45.085 17.792C45.749 17.4434 46.2886 16.9204 46.7036 16.2231C47.1187 15.5259 47.3262 14.6211 47.3262 13.5088C47.3262 12.5127 47.1187 11.6909 46.7036 11.0435C46.3052 10.396 45.7988 9.92285 45.1846 9.62402C44.5869 9.30859 43.873 9.12598 43.043 9.07617H39.457Z" stroke="black" stroke-width="2" mask="url(#path-2-outside-2_2542_10088)"/>
<path d="M58.3828 27.9521V13.0605C58.3828 11.4336 58.6152 10.0723 59.0801 8.97656C59.5449 7.84766 60.1426 6.90967 60.873 6.1626C61.6035 5.41553 62.4004 4.83447 63.2637 4.41943C63.6953 4.20361 64.1187 4.021 64.5337 3.87158C64.9653 3.72217 65.3887 3.58936 65.8037 3.47314C66.6338 3.25732 67.3726 3.12451 68.02 3.07471C68.6841 3.0249 69.1738 3 69.4893 3H70.3359C70.6514 3 71.1411 3.0249 71.8052 3.07471C72.4692 3.12451 73.208 3.25732 74.0215 3.47314C74.8516 3.67236 75.6982 3.98779 76.5615 4.41943C77.3916 4.81787 78.1802 5.40723 78.9272 6.1875C79.6245 6.93457 80.1973 7.87256 80.6455 9.00146C81.1104 10.1138 81.3428 11.4668 81.3428 13.0605V27.9521C81.3428 29.5957 81.1187 30.9902 80.6704 32.1357C80.2056 33.2812 79.6245 34.2358 78.9272 34.9995C78.23 35.7632 77.4414 36.3608 76.5615 36.7925C75.7314 37.2241 74.8848 37.5562 74.0215 37.7886C73.208 38.0044 72.4692 38.1372 71.8052 38.187C71.1411 38.2368 70.6514 38.2617 70.3359 38.2617H69.4893C69.1904 38.2617 68.7007 38.2368 68.02 38.187C67.356 38.1372 66.6172 38.0044 65.8037 37.7886C64.9902 37.5728 64.1436 37.2407 63.2637 36.7925C62.4004 36.3608 61.6035 35.7632 60.873 34.9995C60.1592 34.2358 59.5615 33.2812 59.0801 32.1357C58.6152 30.9902 58.3828 29.5957 58.3828 27.9521ZM66.6504 12.6621V28.8984C66.667 29.4795 66.8081 30.019 67.0737 30.5171C67.2896 30.9321 67.6133 31.3057 68.0449 31.6377C68.4932 31.9697 69.124 32.1357 69.9375 32.1357C70.7344 32.1357 71.3486 31.9697 71.7803 31.6377C72.2119 31.3057 72.5356 30.9321 72.7515 30.5171C72.9839 30.019 73.125 29.4795 73.1748 28.8984V12.6621C73.125 12.0811 72.9839 11.5415 72.7515 11.0435C72.5356 10.645 72.2119 10.2798 71.7803 9.94775C71.3486 9.59912 70.7344 9.4248 69.9375 9.4248C69.124 9.4248 68.4932 9.59912 68.0449 9.94775C67.6133 10.2798 67.2896 10.645 67.0737 11.0435C66.8081 11.5249 66.667 12.0645 66.6504 12.6621Z" stroke="black" stroke-width="2" mask="url(#path-2-outside-2_2542_10088)"/>
<path d="M93.7939 11.9648C93.8105 12.6621 94.0098 13.293 94.3916 13.8574C94.79 14.4053 95.313 14.9282 95.9604 15.4263C96.4917 15.8413 97.2305 16.3311 98.1768 16.8955C99.123 17.46 99.9448 17.9497 100.642 18.3647C101.489 18.8794 102.319 19.4521 103.132 20.083C103.946 20.6973 104.676 21.3945 105.324 22.1748C105.971 22.9551 106.494 23.835 106.893 24.8145C107.291 25.7939 107.507 26.9062 107.54 28.1514V28.3506C107.54 29.6787 107.374 30.8657 107.042 31.9116C106.378 33.8872 105.299 35.3564 103.805 36.3193C103.041 36.8174 102.277 37.1992 101.514 37.4648C100.7 37.7471 99.8784 37.9463 99.0483 38.0625C98.2349 38.1787 97.4629 38.2451 96.7324 38.2617H96.4834C95.1055 38.2617 93.8687 38.1206 92.7729 37.8384C91.7104 37.5562 90.7974 37.1826 90.0337 36.7178C89.27 36.2363 88.6392 35.6885 88.1411 35.0742C87.6265 34.46 87.2197 33.8208 86.9209 33.1567C86.6221 32.5093 86.4062 31.8618 86.2734 31.2144C86.1406 30.5669 86.0742 29.9609 86.0742 29.3965C86.0742 28.2676 86.4146 27.4209 87.0952 26.8564C87.7925 26.292 88.6309 26.0098 89.6104 26.0098C90.5566 26.0098 91.4282 26.3003 92.2251 26.8813C93.0386 27.4458 93.4619 28.2676 93.4951 29.3467C93.5283 30.5918 93.8105 31.4468 94.3418 31.9116C94.873 32.3599 95.6367 32.584 96.6328 32.584C97.7119 32.5508 98.5503 32.2769 99.1479 31.7622C99.7622 31.2476 100.069 30.3262 100.069 28.998C100.069 27.8525 99.729 26.8398 99.0483 25.96C98.3843 25.0801 97.5376 24.2749 96.5083 23.5444C95.479 22.7974 94.4082 22.0752 93.2959 21.3779C92.1338 20.6309 91.0381 19.8506 90.0088 19.0371C88.9795 18.207 88.1411 17.269 87.4937 16.2231C86.8462 15.1772 86.5059 13.957 86.4727 12.5625V12.1641C86.4893 10.3877 86.7217 8.91016 87.1699 7.73145C87.6348 6.55273 88.3154 5.61475 89.2119 4.91748C90.0918 4.22021 91.1792 3.73047 92.4741 3.44824C93.769 3.14941 95.2549 3 96.9316 3H97.5791C99.0732 3 100.368 3.16602 101.464 3.49805C102.526 3.83008 103.406 4.25342 104.104 4.76807C104.817 5.28271 105.382 5.86377 105.797 6.51123C106.195 7.14209 106.494 7.78125 106.693 8.42871C106.893 9.05957 107.017 9.64893 107.067 10.1968C107.117 10.7446 107.142 11.1846 107.142 11.5166C107.142 12.4961 106.785 13.293 106.071 13.9072C105.374 14.5049 104.519 14.8037 103.506 14.8037C102.742 14.8037 101.995 14.5215 101.265 13.957C100.534 13.3926 100.169 12.7783 100.169 12.1143C100.169 10.7529 99.9199 9.80664 99.4219 9.27539C98.9404 8.74414 98.2266 8.47852 97.2803 8.47852C96.1846 8.47852 95.3296 8.67773 94.7153 9.07617C94.1011 9.47461 93.7939 10.4375 93.7939 11.9648Z" stroke="black" stroke-width="2" mask="url(#path-2-outside-2_2542_10088)"/>
<path d="M119.045 11.9648C119.062 12.6621 119.261 13.293 119.643 13.8574C120.041 14.4053 120.564 14.9282 121.211 15.4263C121.743 15.8413 122.481 16.3311 123.428 16.8955C124.374 17.46 125.196 17.9497 125.893 18.3647C126.74 18.8794 127.57 19.4521 128.383 20.083C129.197 20.6973 129.927 21.3945 130.575 22.1748C131.222 22.9551 131.745 23.835 132.144 24.8145C132.542 25.7939 132.758 26.9062 132.791 28.1514V28.3506C132.791 29.6787 132.625 30.8657 132.293 31.9116C131.629 33.8872 130.55 35.3564 129.056 36.3193C128.292 36.8174 127.528 37.1992 126.765 37.4648C125.951 37.7471 125.129 37.9463 124.299 38.0625C123.486 38.1787 122.714 38.2451 121.983 38.2617H121.734C120.356 38.2617 119.12 38.1206 118.024 37.8384C116.961 37.5562 116.048 37.1826 115.285 36.7178C114.521 36.2363 113.89 35.6885 113.392 35.0742C112.877 34.46 112.471 33.8208 112.172 33.1567C111.873 32.5093 111.657 31.8618 111.524 31.2144C111.392 30.5669 111.325 29.9609 111.325 29.3965C111.325 28.2676 111.666 27.4209 112.346 26.8564C113.043 26.292 113.882 26.0098 114.861 26.0098C115.808 26.0098 116.679 26.3003 117.476 26.8813C118.29 27.4458 118.713 28.2676 118.746 29.3467C118.779 30.5918 119.062 31.4468 119.593 31.9116C120.124 32.3599 120.888 32.584 121.884 32.584C122.963 32.5508 123.801 32.2769 124.399 31.7622C125.013 31.2476 125.32 30.3262 125.32 28.998C125.32 27.8525 124.98 26.8398 124.299 25.96C123.635 25.0801 122.789 24.2749 121.759 23.5444C120.73 22.7974 119.659 22.0752 118.547 21.3779C117.385 20.6309 116.289 19.8506 115.26 19.0371C114.23 18.207 113.392 17.269 112.745 16.2231C112.097 15.1772 111.757 13.957 111.724 12.5625V12.1641C111.74 10.3877 111.973 8.91016 112.421 7.73145C112.886 6.55273 113.566 5.61475 114.463 4.91748C115.343 4.22021 116.43 3.73047 117.725 3.44824C119.02 3.14941 120.506 3 122.183 3H122.83C124.324 3 125.619 3.16602 126.715 3.49805C127.777 3.83008 128.657 4.25342 129.354 4.76807C130.068 5.28271 130.633 5.86377 131.048 6.51123C131.446 7.14209 131.745 7.78125 131.944 8.42871C132.144 9.05957 132.268 9.64893 132.318 10.1968C132.368 10.7446 132.393 11.1846 132.393 11.5166C132.393 12.4961 132.036 13.293 131.322 13.9072C130.625 14.5049 129.77 14.8037 128.757 14.8037C127.993 14.8037 127.246 14.5215 126.516 13.957C125.785 13.3926 125.42 12.7783 125.42 12.1143C125.42 10.7529 125.171 9.80664 124.673 9.27539C124.191 8.74414 123.478 8.47852 122.531 8.47852C121.436 8.47852 120.581 8.67773 119.966 9.07617C119.352 9.47461 119.045 10.4375 119.045 11.9648Z" stroke="black" stroke-width="2" mask="url(#path-2-outside-2_2542_10088)"/>
<path d="M151.269 34.377V8.92676C151.269 7.89746 151.352 6.95117 151.518 6.08789C151.684 5.20801 152.032 4.51074 152.563 3.99609C153.111 3.46484 153.941 3.19922 155.054 3.19922C156.249 3.19922 157.121 3.45654 157.668 3.97119C158.233 4.46924 158.59 5.1499 158.739 6.01318C158.905 6.87646 158.988 7.84766 158.988 8.92676V30.7412H163.869C164.865 30.7412 165.778 30.8242 166.608 30.9902C167.455 31.1562 168.127 31.4966 168.625 32.0112C169.14 32.5259 169.397 33.3145 169.397 34.377C169.397 35.4561 169.14 36.2612 168.625 36.7925C168.127 37.3071 167.463 37.6475 166.633 37.8135C165.803 37.9795 164.882 38.0625 163.869 38.0625H156.797C155.021 38.0625 153.651 37.8633 152.688 37.4648C151.742 37.0664 151.269 36.0371 151.269 34.377Z" stroke="black" stroke-width="2" mask="url(#path-2-outside-2_2542_10088)"/>
<path d="M175.125 32.335V8.92676C175.125 7.86426 175.216 6.90137 175.399 6.03809C175.582 5.1748 175.963 4.48584 176.544 3.97119C177.142 3.45654 178.047 3.19922 179.259 3.19922C180.471 3.19922 181.367 3.45654 181.948 3.97119C182.546 4.48584 182.936 5.1748 183.119 6.03809C183.301 6.90137 183.393 7.86426 183.393 8.92676V32.335C183.393 33.4141 183.301 34.3936 183.119 35.2734C182.953 36.1367 182.571 36.8174 181.973 37.3154C181.392 37.8135 180.487 38.0625 179.259 38.0625C178.063 38.0625 177.167 37.8135 176.569 37.3154C175.988 36.8008 175.598 36.1118 175.399 35.2485C175.216 34.3853 175.125 33.4141 175.125 32.335Z" stroke="black" stroke-width="2" mask="url(#path-2-outside-2_2542_10088)"/>
<path d="M190.116 27.9521V13.0605C190.116 11.4336 190.349 10.0723 190.813 8.97656C191.278 7.84766 191.876 6.90967 192.606 6.1626C193.337 5.41553 194.134 4.83447 194.997 4.41943C195.429 4.20361 195.852 4.021 196.267 3.87158C196.699 3.72217 197.122 3.58936 197.537 3.47314C198.367 3.25732 199.106 3.12451 199.753 3.07471C200.417 3.0249 200.907 3 201.223 3H202.069C202.385 3 202.875 3.0249 203.539 3.07471C204.203 3.12451 204.941 3.25732 205.755 3.47314C206.585 3.67236 207.432 3.98779 208.295 4.41943C209.125 4.81787 209.914 5.40723 210.661 6.1875C211.358 6.93457 211.931 7.87256 212.379 9.00146C212.844 10.1138 213.076 11.4668 213.076 13.0605V27.9521C213.076 29.5957 212.852 30.9902 212.404 32.1357C211.939 33.2812 211.358 34.2358 210.661 34.9995C209.963 35.7632 209.175 36.3608 208.295 36.7925C207.465 37.2241 206.618 37.5562 205.755 37.7886C204.941 38.0044 204.203 38.1372 203.539 38.187C202.875 38.2368 202.385 38.2617 202.069 38.2617H201.223C200.924 38.2617 200.434 38.2368 199.753 38.187C199.089 38.1372 198.351 38.0044 197.537 37.7886C196.724 37.5728 195.877 37.2407 194.997 36.7925C194.134 36.3608 193.337 35.7632 192.606 34.9995C191.893 34.2358 191.295 33.2812 190.813 32.1357C190.349 30.9902 190.116 29.5957 190.116 27.9521ZM198.384 12.6621V28.8984C198.4 29.4795 198.542 30.019 198.807 30.5171C199.023 30.9321 199.347 31.3057 199.778 31.6377C200.227 31.9697 200.857 32.1357 201.671 32.1357C202.468 32.1357 203.082 31.9697 203.514 31.6377C203.945 31.3057 204.269 30.9321 204.485 30.5171C204.717 30.019 204.858 29.4795 204.908 28.8984V12.6621C204.858 12.0811 204.717 11.5415 204.485 11.0435C204.269 10.645 203.945 10.2798 203.514 9.94775C203.082 9.59912 202.468 9.4248 201.671 9.4248C200.857 9.4248 200.227 9.59912 199.778 9.94775C199.347 10.2798 199.023 10.645 198.807 11.0435C198.542 11.5249 198.4 12.0645 198.384 12.6621Z" stroke="black" stroke-width="2" mask="url(#path-2-outside-2_2542_10088)"/>
<path d="M230.508 6.28711L238.427 27.7529H239.024V7.08398C239.024 5.90527 239.224 4.96729 239.622 4.27002C240.037 3.55615 240.95 3.19922 242.361 3.19922C243.938 3.19922 244.943 3.53955 245.375 4.22021C245.823 4.90088 246.047 5.85547 246.047 7.08398V32.335C246.047 33.4141 245.98 34.3936 245.848 35.2734C245.731 36.1367 245.416 36.8174 244.901 37.3154C244.387 37.8135 243.54 38.0625 242.361 38.0625H239.074C238.128 38.0625 237.356 37.8384 236.758 37.3901C236.161 36.9419 235.688 36.394 235.339 35.7466C234.99 35.0991 234.708 34.4766 234.492 33.8789L226.972 13.5088H226.374V34.1777C226.374 35.3564 226.175 36.3027 225.776 37.0166C225.378 37.7139 224.465 38.0625 223.037 38.0625C221.443 38.0625 220.422 37.7222 219.974 37.0415C219.526 36.3608 219.302 35.4062 219.302 34.1777V8.92676C219.302 7.84766 219.36 6.87646 219.476 6.01318C219.609 5.1499 219.941 4.46924 220.472 3.97119C221.003 3.45654 221.858 3.19922 223.037 3.19922H226.324C227.154 3.19922 227.827 3.36523 228.341 3.69727C228.873 4.0127 229.304 4.36133 229.636 4.74316C229.968 5.1416 230.259 5.65625 230.508 6.28711Z" stroke="black" stroke-width="2" mask="url(#path-2-outside-2_2542_10088)"/>
</svg>
